<svg version="1.1" id="master" xmlns="http://www.w3.org/2000/svg" xmlns:xlink="http://www.w3.org/1999/xlink" x="0px" y="0px"
	 width="256px" height="256px" viewBox="0 0 256 256" enable-background="new 0 0 256 256" xml:space="preserve">
<g>
	
		<linearGradient id="SVGID_1_" gradientUnits="userSpaceOnUse" x1="117.6616" y1="139.3164" x2="117.6616" y2="138.356" gradientTransform="matrix(255.7156 0 0 -255.7156 -29959.8633 35635.7852)">
		<stop  offset="0" style="stop-color:#FDFDFD"/>
		<stop  offset="1" style="stop-color:#CBCBCB"/>
	</linearGradient>
	<circle fill="url(#SVGID_1_)" cx="128" cy="128" r="127.858"/>
	
		<linearGradient id="SVGID_2_" gradientUnits="userSpaceOnUse" x1="117.7236" y1="139.209" x2="117.7236" y2="138.2486" gradientTransform="matrix(233.8133 0 0 -233.8133 -27397.5039 32569.5234)">
		<stop  offset="0" style="stop-color:#B2E198"/>
		<stop  offset="1" style="stop-color:#04A171"/>
	</linearGradient>
	<circle fill="url(#SVGID_2_)" cx="127.858" cy="128.142" r="116.907"/>
	<g transform="translate(45.511111, 52.622222)">
		<path fill="#F2F8F6" d="M54.942,57.474c-1.376,2.12-2.705,4.25-3.988,6.382c-1.403-3.863-2.635-7.667-3.685-11.377
			c3.73-0.534,7.695-0.956,11.875-1.248C57.725,53.265,56.322,55.347,54.942,57.474L54.942,57.474L54.942,57.474z M158.08,64.95
			c-4.132-3.967-10.04-7.601-17.558-10.803c-14.926-6.356-34.918-10.475-56.295-11.596c-2.578-0.135-5.095-0.228-7.529-0.277
			c16.321-19.48,32.083-29.846,41.262-30.194c1.944-0.074,3.576,0.31,4.854,1.141c4.297,2.792,5.488,11.452,3.188,23.166
			c-0.454,2.312,1.053,4.555,3.364,5.009c2.313,0.452,4.555-1.052,5.01-3.365c3.953-20.137-1.577-28.497-6.912-31.965
			c-2.784-1.81-6.094-2.655-9.828-2.514C103.516,4.088,83.732,19.144,65.68,42.355c-7.147,0.247-14.038,0.863-20.483,1.826
			c-0.708-3.285-1.254-6.469-1.625-9.521c-1.619-13.344,0.367-22.816,5.312-25.338c0.794-0.405,1.663-0.638,2.654-0.712
			c4.418-0.333,10.652,2.637,17.542,8.359c1.812,1.505,4.502,1.256,6.008-0.557c1.505-1.813,1.256-4.503-0.557-6.008
			C65.682,3.055,57.732-0.413,50.899,0.1c-2.113,0.158-4.095,0.704-5.892,1.62c-4.593,2.342-7.732,6.828-9.33,13.332
			c-1.368,5.569-1.563,12.513-0.576,20.636c0.39,3.212,0.959,6.556,1.694,9.998c-5.04,1.062-9.71,2.356-13.896,3.869
			C4.583,56.171,0.355,64.892,0.032,71.043c-0.308,5.875,2.7,14.62,18.776,22.911c2.094,1.08,4.667,0.258,5.748-1.837
			s0.258-4.668-1.836-5.747C13.471,81.6,8.309,76.177,8.554,71.49C8.9,64.885,19.97,57.894,38.828,53.955
			c1.747,6.309,3.99,12.861,6.681,19.505c-6.778,12.723-11.723,25.262-14.288,36.416c-1.833,7.971-2.368,14.89-1.592,20.566
			c0.906,6.631,3.559,11.418,7.882,14.229c2.205,1.433,5.175,2.553,9.078,2.553c5.659,0,13.275-2.357,23.343-9.538
			c1.918-1.368,2.365-4.032,0.996-5.951c-1.368-1.919-4.032-2.364-5.951-0.996c-9.925,7.079-18.455,9.612-22.816,6.778
			c-4.652-3.023-5.633-12.643-2.624-25.729c1.995-8.678,5.555-18.297,10.383-28.209c1.048,2.243,2.142,4.488,3.283,6.73
			c9.717,19.087,21.612,35.693,33.494,46.761c5.984,5.573,11.707,9.497,17.012,11.663c3.217,1.314,6.238,1.972,9.044,1.972
			c2.597-0.001,5.009-0.563,7.217-1.689c4.431-2.259,7.511-6.521,9.157-12.666c1.409-5.263,1.726-11.827,0.941-19.512
			c-1.543-15.11-7.253-33.538-16.077-51.892c-1.021-2.124-3.571-3.017-5.694-1.996c-2.124,1.021-3.018,3.57-1.996,5.694
			c8.407,17.485,13.834,34.908,15.278,49.06c1.271,12.446-0.78,21.31-5.486,23.709c-4.941,2.521-13.756-1.438-23.579-10.587
			c-11.17-10.404-22.43-26.169-31.706-44.389c-2.121-4.165-4.074-8.34-5.852-12.483c2.206-3.944,4.592-7.902,7.144-11.835
			c2.602-4.01,5.236-7.789,7.877-11.333c0.7-0.01,1.405-0.017,2.115-0.019c3.665-0.012,7.592,0.09,11.688,0.305
			c20.404,1.07,39.368,4.95,53.398,10.925c12.341,5.255,19.535,11.704,19.244,17.25c-0.246,4.708-5.967,9.575-15.695,13.352
			c-2.197,0.854-3.286,3.326-2.434,5.522c0.656,1.688,2.27,2.724,3.979,2.724c0.514,0,1.036-0.094,1.543-0.291
			c16.904-6.563,20.821-14.967,21.13-20.861C165.214,74.541,162.905,69.581,158.08,64.95L158.08,64.95L158.08,64.95z"/>
		<path fill="#F1F8F3" d="M73.683,76.511c0,5.153,4.174,9.331,9.322,9.331c5.149,0,9.323-4.178,9.323-9.331
			s-4.174-9.331-9.323-9.331C77.857,67.18,73.683,71.357,73.683,76.511"/>
	</g>
</g>
</svg>
