<svg version="1.1" id="master" xmlns="http://www.w3.org/2000/svg" xmlns:xlink="http://www.w3.org/1999/xlink" x="0px" y="0px"
	 width="256px" height="256px" viewBox="0 0 256 256" enable-background="new 0 0 256 256" xml:space="preserve">
<g>
	<path fill="#FFFFFF" d="M176.488,164.592l-36.596-36.599l36.59-36.589l-55.415-55.409v73.053L90.599,78.564L79.511,89.646
		l38.249,38.348l-38.252,38.35l11.086,11.09l30.478-30.486v73.057L176.488,164.592z M154.346,91.531l-17.684,17.679l-0.012-35.372
		L154.346,91.531z M136.662,146.775l17.684,17.683l-17.695,17.688L136.662,146.775z"/>
	<path fill="#0060A9" d="M136.65,73.838l17.693,17.693l-17.683,17.679L136.65,73.838L136.65,73.838L136.65,73.838z M136.65,182.146
		l17.693-17.688l-17.683-17.683L136.65,182.146L136.65,182.146L136.65,182.146z M117.76,127.993L79.512,89.646l11.087-11.083
		l30.469,30.484V35.994l55.415,55.41l-36.59,36.588l36.596,36.599l-55.417,55.41v-73.058l-30.477,30.488l-11.087-11.091
		L117.76,127.993L117.76,127.993L117.76,127.993z M128.007,235c46.728,0,78.923-22.198,78.923-107.003
		C206.93,43.195,174.734,21,128.007,21C81.284,21,49.07,43.198,49.07,127.997C49.071,212.802,81.281,235,128.007,235L128.007,235
		L128.007,235z"/>
</g>
</svg>
