<svg version="1.1" id="master" xmlns="http://www.w3.org/2000/svg" xmlns:xlink="http://www.w3.org/1999/xlink" x="0px" y="0px"
	 width="726px" height="200px" viewBox="0 0 726 200" enable-background="new 0 0 726 200" xml:space="preserve">
<rect fill="none" width="24" height="24"/>
<path fill="#7289DA" d="M106.1,84.049c-5.7,0-10.2,4.9-10.2,11c0,6.102,4.601,11,10.2,11c5.7,0,10.2-4.898,10.2-11
	C116.3,88.949,111.7,84.049,106.1,84.049z M69.6,84.049c-5.7,0-10.2,4.9-10.2,11c0,6.102,4.601,11,10.2,11c5.7,0,10.2-4.898,10.2-11
	C79.899,88.949,75.3,84.049,69.6,84.049z M154.7,0.85h-134c-11.301,0-20.5,9.199-20.5,20.5v134c0,11.301,9.199,20.5,20.5,20.5H134.1
	l-5.3-18.301l12.8,11.801l12.101,11.1l21.6,18.701V21.35C175.2,10.049,166,0.85,154.7,0.85z M116.1,130.35c0,0-3.6-4.301-6.6-8
	c13.1-3.699,18.1-11.801,18.1-11.801c-4.1,2.701-8,4.602-11.5,5.9c-5,2.1-9.8,3.4-14.5,4.301c-9.6,1.799-18.399,1.299-25.899-0.1
	C70,119.549,65.1,118.049,61,116.35c-2.3-0.9-4.8-2-7.3-3.4c-0.301-0.199-0.601-0.299-0.9-0.5c-0.2-0.1-0.3-0.199-0.4-0.199
	c-1.8-1-2.8-1.701-2.8-1.701s4.8,7.9,17.5,11.701c-3,3.799-6.7,8.199-6.7,8.199c-22.1-0.699-30.5-15.1-30.5-15.1
	c0-31.9,14.4-57.801,14.4-57.801c14.4-10.699,28-10.398,28-10.398l1,1.199c-18,5.1-26.2,13-26.2,13s2.2-1.199,5.9-2.801
	c10.7-4.699,19.2-5.898,22.7-6.299c0.6-0.1,1.1-0.201,1.699-0.201c6.101-0.799,13-1,20.2-0.199c9.5,1.1,19.7,3.9,30.101,9.5
	c0,0-7.9-7.5-24.9-12.6l1.4-1.6c0,0,13.699-0.301,28,10.398c0,0,14.399,25.9,14.399,57.801C146.6,115.25,138.2,129.65,116.1,130.35
	L116.1,130.35z M267.1,43.65h-33.2v37.299L256,100.85V64.65h11.8c7.5,0,11.2,3.6,11.2,9.398v27.701c0,5.799-3.5,9.699-11.2,9.699
	h-34v21.1H267c17.8,0.102,34.5-8.799,34.5-29.199V73.549C301.6,52.75,284.899,43.65,267.1,43.65z M441.1,103.35v-30.6
	c0-11,19.8-13.5,25.8-2.5l18.301-7.4c-7.2-15.801-20.301-20.4-31.2-20.4c-17.8,0-35.4,10.301-35.4,30.301v30.6
	c0,20.199,17.601,30.301,35,30.301c11.2,0,24.601-5.5,32-19.9l-19.6-9C461.2,117.049,441.1,114.049,441.1,103.35L441.1,103.35z
	 M380.6,76.949c-6.899-1.5-11.5-4-11.8-8.299c0.4-10.301,16.3-10.701,25.6-0.801l14.7-11.301c-9.2-11.199-19.6-14.199-30.3-14.199
	c-16.3,0-32.1,9.199-32.1,26.6c0,16.9,13,26,27.3,28.201c7.3,1,15.399,3.898,15.2,8.898c-0.601,9.5-20.2,9-29.101-1.799
	l-14.2,13.299c8.301,10.701,19.601,16.102,30.2,16.102c16.3,0,34.4-9.4,35.101-26.602C412.2,85.35,396.399,79.85,380.6,76.949
	L380.6,76.949z M313.6,132.449H336V43.65h-22.4V132.449z M691.3,43.65h-33.2v37.299l22.101,19.9V64.65H692
	c7.5,0,11.2,3.6,11.2,9.398v27.701c0,5.799-3.5,9.699-11.2,9.699h-34v21.1h33.3c17.8,0.102,34.5-8.799,34.5-29.199V73.549
	C725.8,52.75,709.1,43.65,691.3,43.65z M528.399,42.449c-18.399,0-36.699,10-36.699,30.5v30.301c0,20.299,18.399,30.5,36.899,30.5
	c18.4,0,36.7-10.201,36.7-30.5V72.949C565.3,52.549,546.8,42.449,528.399,42.449z M542.8,103.25c0,6.4-7.2,9.699-14.3,9.699
	c-7.2,0-14.4-3.1-14.4-9.699V72.949c0-6.5,7-10,14-10c7.3,0,14.7,3.1,14.7,10V103.25z M645.7,72.949
	c-0.5-20.799-14.7-29.199-33-29.199h-35.5v88.799h22.699V104.35h4l20.601,28.199h28l-24.2-30.5C639,98.65,645.7,89.35,645.7,72.949z
	 M613.1,84.949h-13.2V64.65h13.2C627.2,64.65,627.2,84.949,613.1,84.949z"/>
</svg>
