<svg version="1.1" id="master" xmlns="http://www.w3.org/2000/svg" xmlns:xlink="http://www.w3.org/1999/xlink" x="0px" y="0px"
	 width="256px" height="256px" viewBox="0 0 256 256" enable-background="new 0 0 256 256" xml:space="preserve">
<g>
	<path fill="#161614" d="M128.001,23.641C68.914,23.641,21,71.546,21,130.643c0,47.275,30.659,87.385,73.174,101.533
		c5.348,0.99,7.311-2.322,7.311-5.148c0-2.551-0.099-10.979-0.146-19.92c-29.768,6.473-36.049-12.625-36.049-12.625
		c-4.867-12.367-11.88-15.656-11.88-15.656c-9.708-6.641,0.732-6.504,0.732-6.504c10.745,0.754,16.402,11.025,16.402,11.025
		c9.543,16.358,25.031,11.629,31.137,8.896c0.96-6.915,3.733-11.636,6.793-14.308c-23.766-2.707-48.75-11.881-48.75-52.881
		c0-11.683,4.18-21.228,11.025-28.721c-1.111-2.695-4.774-13.578,1.037-28.316c0,0,8.985-2.876,29.433,10.968
		c8.535-2.371,17.689-3.56,26.782-3.601c9.093,0.041,18.254,1.229,26.806,3.601c20.422-13.844,29.396-10.968,29.396-10.968
		c5.823,14.738,2.159,25.621,1.048,28.316c6.861,7.493,11.014,17.038,11.014,28.721c0,41.098-25.031,50.146-48.859,52.795
		c3.84,3.32,7.26,9.832,7.26,19.814c0,14.316-0.124,25.84-0.124,29.363c0,2.848,1.925,6.185,7.349,5.134
		C204.381,217.997,235,177.902,235,130.643C235,71.546,187.094,23.641,128.001,23.641z M61.075,176.066
		c-0.235,0.531-1.072,0.69-1.834,0.326c-0.776-0.35-1.212-1.074-0.96-1.607c0.23-0.549,1.069-0.699,1.843-0.333
		C60.902,174.801,61.345,175.533,61.075,176.066z M66.338,180.764c-0.51,0.473-1.508,0.254-2.185-0.494
		c-0.7-0.746-0.831-1.744-0.313-2.225c0.526-0.475,1.494-0.251,2.195,0.494C66.735,179.294,66.872,180.284,66.338,180.764z
		 M69.949,186.771c-0.655,0.455-1.728,0.027-2.39-0.924c-0.656-0.951-0.656-2.093,0.014-2.55c0.665-0.457,1.721-0.046,2.392,0.897
		C70.619,185.164,70.619,186.307,69.949,186.771z M76.056,193.73c-0.587,0.646-1.836,0.474-2.75-0.41
		c-0.936-0.861-1.196-2.086-0.608-2.732c0.594-0.648,1.85-0.467,2.771,0.409C76.398,191.857,76.681,193.091,76.056,193.73z
		 M83.948,196.08c-0.259,0.838-1.462,1.22-2.674,0.863c-1.21-0.367-2.002-1.35-1.757-2.196c0.251-0.843,1.46-1.24,2.681-0.858
		C83.406,194.253,84.2,195.229,83.948,196.08z M92.93,197.076c0.03,0.883-0.998,1.613-2.27,1.631
		c-1.279,0.027-2.314-0.686-2.329-1.555c0-0.893,1.005-1.615,2.284-1.637C91.888,195.49,92.93,196.199,92.93,197.076z
		 M101.753,196.738c0.152,0.861-0.732,1.744-1.995,1.98c-1.242,0.227-2.392-0.305-2.55-1.158c-0.154-0.883,0.746-1.768,1.986-1.996
		C100.46,195.346,101.592,195.861,101.753,196.738z"/>
</g>
</svg>
