<svg version="1.1" id="master" xmlns="http://www.w3.org/2000/svg" xmlns:xlink="http://www.w3.org/1999/xlink" x="0px" y="0px"
	 width="272px" height="92px" viewBox="0 0 272 92" enable-background="new 0 0 272 92" xml:space="preserve">
<g>
	<path fill="#EA4335" d="M262.84,55.631l7.561,5.039c-2.438,3.609-8.319,9.83-18.479,9.83c-12.601,0-22.01-9.74-22.01-22.182
		c0-13.188,9.489-22.179,20.92-22.179c11.51,0,17.142,9.16,18.979,14.11l1.01,2.52l-29.649,12.279
		c2.271,4.449,5.802,6.721,10.75,6.721C256.881,61.77,260.32,59.33,262.84,55.631L262.84,55.631z M239.57,47.648l19.82-8.228
		c-1.091-2.771-4.371-4.7-8.23-4.7C246.211,34.721,239.32,39.09,239.57,47.648z"/>
	<path fill="#34A853" d="M225.82,4.149v64.999h-9.5V4.149H225.82z"/>
	<path fill="#4285F4" d="M210.57,27.49v39.819c0,16.381-9.66,23.07-21.08,23.07c-10.75,0-17.221-7.189-19.66-13.07l8.48-3.529
		c1.51,3.609,5.209,7.869,11.17,7.869c7.311,0,11.84-4.51,11.84-13v-3.188h-0.34C198.8,68.148,194.6,70.5,189.3,70.5
		c-11.09,0-21.25-9.66-21.25-22.09c0-12.521,10.16-22.261,21.25-22.261c5.289,0,9.49,2.351,11.681,4.96h0.34V27.5h9.25V27.49
		L210.57,27.49z M202.01,48.41c0-7.811-5.209-13.521-11.84-13.521c-6.72,0-12.35,5.71-12.35,13.521
		c0,7.729,5.63,13.359,12.35,13.359C196.801,61.77,202.01,56.141,202.01,48.41z"/>
	<path fill="#FBBC05" d="M164.57,48.33c0,12.77-9.99,22.18-22.25,22.18c-12.261,0-22.251-9.41-22.251-22.18
		c0-12.851,9.99-22.181,22.251-22.181C154.58,26.149,164.57,35.471,164.57,48.33z M154.83,48.33c0-7.979-5.789-13.439-12.51-13.439
		c-6.722,0-12.511,5.46-12.511,13.439c0,7.898,5.789,13.439,12.511,13.439C149.041,61.77,154.83,56.221,154.83,48.33z"/>
	<path fill="#EA4335" d="M116.569,48.33c0,12.77-9.989,22.18-22.25,22.18c-12.26,0-22.25-9.41-22.25-22.18
		c0-12.859,9.99-22.181,22.25-22.181C106.58,26.149,116.569,35.471,116.569,48.33z M106.83,48.33c0-7.979-5.79-13.439-12.511-13.439
		s-12.51,5.46-12.51,13.439c0,7.898,5.789,13.439,12.51,13.439S106.83,56.221,106.83,48.33z"/>
	<path fill="#4285F4" d="M36.109,42.561v-9.41h31.71c0.311,1.641,0.471,3.58,0.471,5.681c0,7.06-1.931,15.79-8.15,22.008
		c-6.05,6.301-13.779,9.66-24.02,9.66c-18.98,0-34.94-15.459-34.94-34.438c0-18.981,15.96-34.441,34.94-34.441
		c10.5,0,17.979,4.119,23.6,9.489l-6.64,6.641c-4.03-3.78-9.49-6.721-16.971-6.721c-13.859,0-24.699,11.17-24.699,25.03
		c0,13.858,10.84,25.028,24.699,25.028c8.989,0,14.109-3.609,17.391-6.889c2.66-2.66,4.41-6.461,5.1-11.65L36.109,42.561z"/>
</g>
</svg>
