<svg version="1.1" id="master" xmlns="http://www.w3.org/2000/svg" xmlns:xlink="http://www.w3.org/1999/xlink" x="0px" y="0px"
	 width="256px" height="256px" viewBox="0 0 256 256" enable-background="new 0 0 256 256" xml:space="preserve">
<g>
	<path fill="#EF3F36" d="M127.729,21.019c0,0,62.845-2.82,96.164,60.349H122.381c0,0-19.156-0.617-35.521,22.624
		c-4.701,9.754-9.755,19.802-4.084,39.605C74.608,129.759,39.411,68.47,39.411,68.47S64.236,23.516,127.729,21.019L127.729,21.019z"
		/>
	<path fill="#FCD900" d="M220.63,181.379c0,0-28.999,55.854-100.334,53.092c8.812-15.248,50.771-87.906,50.771-87.906
		s10.136-16.276-1.822-42.072c-6.082-8.961-12.281-18.334-32.26-23.329c16.07-0.147,86.729,0,86.729,0
		S250.188,125.145,220.63,181.379L220.63,181.379z"/>
	<path fill="#61BC5B" d="M35.268,181.82c0,0-33.876-53.032,4.201-113.439c8.785,15.249,50.741,87.907,50.741,87.907
		s9.049,16.924,37.343,19.45c10.782-0.793,22.006-1.469,36.344-16.247c-7.902,13.983-43.366,75.097-43.366,75.097
		S69.172,235.527,35.268,181.82L35.268,181.82z"/>
	<path fill="#5AB055" d="M120.267,235l14.278-59.585c0,0,15.688-1.233,28.852-15.659C155.229,174.122,120.267,235,120.267,235
		L120.267,235z"/>
	<path fill="#FFFFFF" d="M79.896,128.671c0-26.267,21.301-47.568,47.567-47.568c26.267,0,47.568,21.301,47.568,47.568
		c0,26.267-21.301,47.565-47.568,47.565C101.197,176.208,79.896,154.938,79.896,128.671L79.896,128.671z"/>
	
		<linearGradient id="SVGID_1_" gradientUnits="userSpaceOnUse" x1="355.3457" y1="131.1846" x2="355.3457" y2="130.3806" gradientTransform="matrix(94.9348 0 0 -94.9348 -33607.1563 12543.5889)">
		<stop  offset="0" style="stop-color:#86BBE5"/>
		<stop  offset="1" style="stop-color:#1072BA"/>
	</linearGradient>
	<path fill="url(#SVGID_1_)" d="M87.858,128.671c0-21.86,17.716-39.606,39.605-39.606c21.86,0,39.605,17.717,39.605,39.606
		c0,21.858-17.717,39.604-39.605,39.604C105.604,168.275,87.858,150.529,87.858,128.671L87.858,128.671z"/>
	<path fill="#EACA05" d="M223.686,81.191l-58.789,17.247c0,0-8.873-13.016-27.94-17.247
		C153.495,81.103,223.686,81.191,223.686,81.191L223.686,81.191z"/>
	<path fill="#DF3A32" d="M81.629,141.422c-8.256-14.309-42.22-72.953-42.22-72.953l43.542,43.073c0,0-4.466,9.196-2.792,22.358
		L81.629,141.422L81.629,141.422z"/>
</g>
</svg>
