<svg version="1.1" id="master" xmlns="http://www.w3.org/2000/svg" xmlns:xlink="http://www.w3.org/1999/xlink" x="0px" y="0px"
	 width="227.826px" height="78.836px" viewBox="0 0 227.826 78.836" enable-background="new 0 0 227.826 78.836"
	 xml:space="preserve">
<g>
	<path fill="#FA472F" d="M214.304,29.982c1.473-0.544,2.25-1.013,2.25-2.097c0-3.104-3.492-6.68-7.688-6.68
		c-3.109,0-8.936,2.406-8.936,10.797c0,1.321,0.158,2.721,0.233,4.116L214.304,29.982z M225.325,49.619l-3.723,3.512
		c-0.854,0.467-1.709,1.01-2.563,1.396c-2.563,1.166-5.206,1.477-7.536,1.477c-2.484,0-6.369-0.148-10.327-3.029
		c-5.515-3.881-7.926-10.561-7.926-16.382c0-12.038,9.791-17.944,17.789-17.944c2.794,0,5.672,0.701,8,2.173
		c3.884,2.561,4.894,5.904,5.437,7.688l-18.248,7.381l-5.985,0.465c1.94,9.861,8.624,15.609,16.003,15.609
		c3.686,0,6.431-1.211,8.927-2.438C225.17,49.523,225.683,49.258,225.325,49.619"/>
	<path fill="#009D53" d="M187.136,49.018c0,3.021,0.543,3.49,3.105,3.721c1.318,0.158,2.641,0.232,3.961,0.393l-2.874,1.709h-13.692
		c1.786-2.332,2.104-2.566,2.104-4.117v-1.729L179.716,2.8h-6.056L179.483,0h11.105c-2.402,1.399-3.13,2.247-3.439,4.964
		L187.136,49.018z"/>
	<path fill="#0065EA" d="M162.647,42.182c1.793-1.791,1.947-4.275,1.947-5.675c0-5.591-3.345-14.294-9.791-14.294
		c-2.021,0-4.193,1.012-5.435,2.568c-1.323,1.632-1.711,3.726-1.711,5.746c0,5.201,3.028,13.829,9.707,13.829
		C159.31,44.355,161.403,43.418,162.647,42.182 M160.401,56.938c-0.625-0.076-1.014-0.076-1.793-0.076
		c-0.694,0-4.893,0.148-8.154,1.238c-1.705,0.621-6.68,2.488-6.68,8c0,5.514,5.358,9.475,13.672,9.475
		c7.46,0,11.418-3.57,11.418-8.379C168.865,63.227,166.304,61.129,160.401,56.938 M165.91,22.446
		c1.788,1.479,5.521,4.582,5.521,10.489c0,5.752-3.268,8.465-6.521,11.025c-1.016,1.012-2.184,2.1-2.184,3.809
		c0,1.711,1.168,2.639,2.022,3.342l2.8,2.174c3.412,2.873,6.521,5.516,6.521,10.877c0,7.301-7.071,14.674-20.43,14.674
		c-11.264,0-16.703-5.355-16.703-11.102c0-2.799,1.402-6.758,5.985-9.479c4.81-2.955,11.338-3.34,14.837-3.57
		c-1.092-1.402-2.333-2.879-2.333-5.281c0-1.324,0.392-2.104,0.778-3.033c-0.857,0.08-1.711,0.154-2.489,0.154
		c-8.229,0-12.894-6.137-12.894-12.193c0-3.569,1.634-7.537,4.975-10.408c4.426-3.652,9.704-4.274,13.898-4.274h16l-4.969,2.794
		h-4.816L165.91,22.446L165.91,22.446z"/>
	<path fill="#FFBC00" d="M127.465,49.555c1.865-2.479,2.328-5.594,2.328-8.625c0-6.832-3.265-19.878-12.892-19.878
		c-2.565,0-5.131,1.008-6.991,2.642c-3.029,2.719-3.571,6.138-3.571,9.478c0,7.686,3.8,20.342,13.199,20.342
		C122.573,53.514,125.679,52.041,127.465,49.555 M117.759,55.854c-12.355,0-18.948-9.639-18.948-18.338
		c0-10.17,8.306-18.87,20.108-18.87c11.42,0,18.566,8.931,18.566,18.327C137.485,46.141,130.415,55.854,117.759,55.854"/>
	<path fill="#FA472F" d="M86.145,49.555c1.862-2.479,2.327-5.594,2.327-8.625c0-6.832-3.259-19.878-12.888-19.878
		c-2.566,0-5.13,1.008-6.995,2.642c-3.028,2.719-3.571,6.138-3.571,9.478c0,7.686,3.809,20.342,13.205,20.342
		C81.248,53.514,84.363,52.041,86.145,49.555 M76.437,55.854c-12.355,0-18.953-9.639-18.953-18.338
		c0-10.17,8.309-18.87,20.117-18.87c11.416,0,18.567,8.931,18.567,18.327C96.167,46.141,89.097,55.854,76.437,55.854"/>
	<path fill="#0065EA" d="M52.545,53.139l-10.412,2.402c-4.223,0.654-8.013,1.238-12.015,1.238
		c-20.099,0-27.744-14.783-27.744-26.359c0-14.13,10.852-27.236,29.419-27.236c3.932,0,7.718,0.581,11.143,1.529
		c5.461,1.531,8.007,3.424,9.609,4.511l-6.043,5.758l-2.549,0.579l1.813-2.913c-2.465-2.398-6.992-6.844-15.579-6.844
		c-11.502,0-20.169,8.741-20.169,21.483c0,13.689,9.907,26.578,25.778,26.578c4.663,0,7.063-0.943,9.251-1.822V40.326l-10.995,0.578
		l5.818-3.133h15.442l-1.892,1.824c-0.513,0.436-0.588,0.586-0.732,1.16c-0.075,0.66-0.145,2.77-0.145,3.496v8.887H52.545z"/>
</g>
</svg>
