<svg version="1.1" id="master" xmlns="http://www.w3.org/2000/svg" xmlns:xlink="http://www.w3.org/1999/xlink" x="0px" y="0px"
	 width="256px" height="256px" viewBox="0 0 256 256" enable-background="new 0 0 256 256" xml:space="preserve">
<g>
	<path fill="#A4C639" d="M50.809,90.468c-7.371,0-13.237,5.866-13.237,13.237v55.137c0,7.371,5.866,13.236,13.237,13.236
		c7.372,0,13.237-5.865,13.237-13.236v-55.137C64.046,96.333,58.181,90.468,50.809,90.468z"/>
	<path fill="#A4C639" d="M205.192,90.468c-7.371,0-13.236,5.866-13.236,13.237v55.137c0,7.371,5.865,13.236,13.236,13.236
		s13.236-5.865,13.236-13.236v-55.137C218.431,96.333,212.563,90.468,205.192,90.468z"/>
	<path fill="#A4C639" d="M68.971,178.303c0,7.906,6.365,14.271,14.271,14.271h9.467v29.189c0,7.371,5.865,13.236,13.235,13.236
		c7.372,0,13.237-5.865,13.237-13.236v-29.189h17.636v29.189c0,7.371,5.865,13.236,13.236,13.236
		c7.372,0,13.237-5.865,13.237-13.236v-29.189h9.467c7.905,0,14.271-6.364,14.271-14.271V92.74H68.971V178.303z"/>
	<path fill="#A4C639" d="M156.948,40.643l9.322-16.845c0.525-0.946,0.215-2.031-0.729-2.554c-0.287-0.16-0.579-0.24-0.893-0.243
		c-0.67-0.006-1.305,0.328-1.662,0.973l-9.446,17.028c-7.728-3.428-16.396-5.352-25.541-5.352c-9.146,0-17.814,1.924-25.542,5.352
		l-9.446-17.028C92.654,21.329,92.02,20.995,91.35,21c-0.313,0.003-0.604,0.083-0.892,0.243c-0.944,0.523-1.254,1.608-0.73,2.554
		l9.325,16.845c-17.94,9.335-30.058,27.075-30.082,47.434h118.058C187.006,67.716,174.888,49.978,156.948,40.643z M100.756,66.467
		c-2.695,0-4.926-2.231-4.926-4.926s2.23-4.926,4.926-4.926s4.926,2.23,4.926,4.926C105.682,64.236,103.451,66.467,100.756,66.467z
		 M155.245,66.467c-2.696,0-4.928-2.231-4.928-4.926s2.23-4.926,4.928-4.926c2.693,0,4.926,2.23,4.926,4.926
		C160.171,64.236,157.938,66.467,155.245,66.467z"/>
	<path fill="#FFFFFF" d="M155.245,56.617c-2.696,0-4.928,2.23-4.928,4.926c0,2.695,2.23,4.926,4.928,4.926
		c2.693,0,4.926-2.231,4.926-4.926C160.171,58.847,157.938,56.617,155.245,56.617z"/>
	<path fill="#FFFFFF" d="M100.756,56.617c-2.695,0-4.926,2.23-4.926,4.926c0,2.695,2.23,4.926,4.926,4.926s4.926-2.231,4.926-4.926
		C105.682,58.847,103.451,56.617,100.756,56.617z"/>
</g>
</svg>
