<svg version="1.1"
	 id="master" xmlns:rdf="http://www.w3.org/1999/02/22-rdf-syntax-ns#" xmlns:sodipodi="http://sodipodi.sourceforge.net/DTD/sodipodi-0.dtd" xmlns:inkscape="http://www.inkscape.org/namespaces/inkscape" xmlns:svg="http://www.w3.org/2000/svg" xmlns:dc="http://purl.org/dc/elements/1.1/" xmlns:cc="http://creativecommons.org/ns#" sodipodi:docname="Minecraft logo.svg" inkscape:version="0.92.2 (5c3e80d, 2017-08-06)"
	 xmlns="http://www.w3.org/2000/svg" xmlns:xlink="http://www.w3.org/1999/xlink" x="0px" y="0px" width="1000px"
	 height="166.732px" viewBox="0 0 1000 166.732" enable-background="new 0 0 1000 166.732" xml:space="preserve">
<g>
	<polygon id="polygon16166" fill="#030303" points="183.844,4.776 184.64,0.398 234.381,0.398 236.371,4.776 237.167,0.398 
		287.306,0.398 296.061,22.682 297.254,22.682 298.846,26.661 302.825,0.398 353.761,0.398 354.954,4.377 355.353,0.398 
		460.008,0.398 465.181,47.751 463.987,76.005 461.998,76.005 463.589,89.932 462.396,120.175 460.008,120.175 461.998,135.296 
		460.804,166.733 356.546,166.733 355.353,162.754 354.954,166.733 304.417,166.733 292.479,142.062 288.898,166.733 
		239.156,166.733 236.769,162.754 235.973,166.733 187.027,166.733 184.242,163.152 183.446,166.733 134.5,166.733 113.808,142.857 
		101.074,142.857 97.891,139.674 90.728,166.733 43.375,166.733 0,126.94 40.589,0.796 88.739,0.796 111.022,31.038 113.41,22.284 
		126.542,22.284 132.113,0.796 181.457,0.398 	"/>
	<path id="path16170" inkscape:connector-curvature="0" fill="#030303" d="M619.181,162.754l-0.796,3.979h-52.129l-3.979-118.98
		L566.653,0h105.054l0.398,4.377L673.299,0h104.258l0.796,4.377L780.342,0h103.064L884.6,3.98L886.987,0h102.269l9.551,30.242
		l-20.295,24.274v0.397c1.592,4.775,2.785,9.551,4.377,14.325c1.194,3.582,7.163,22.683,7.163,22.683l3.184,10.744
		c0.796,3.184,1.989,6.367,2.785,9.55l2.786,9.551l1.193,4.377l-40.589,40.191h-48.548l-18.702-76.801l-21.488,29.845h-15.122
		l1.194,5.969l-28.651,40.589h-49.741l-0.796-3.979l-2.388,3.979H725.03l-0.398-3.979l-1.989,3.979h-50.537l-0.398-4.377
		l-1.592,4.377h-51.333L619.181,162.754z"/>
	<polygon id="polygon16174" fill="#030303" points="565.857,166.733 461.202,166.733 456.028,124.95 460.406,0.398 566.256,0 
		567.052,29.447 563.47,76.005 514.524,76.005 514.127,91.922 569.041,91.922 569.837,124.95 	"/>
	
		<linearGradient id="polygon16187_1_" gradientUnits="userSpaceOnUse" x1="471.9761" y1="-20.4446" x2="471.9761" y2="8.655" gradientTransform="matrix(3.9793 0 0 -3.9793 -1785.6204 42.3974)">
		<stop  offset="0" style="stop-color:#D9CDCA"/>
		<stop  offset="1" style="stop-color:#A89F9C"/>
	</linearGradient>
	<polygon id="polygon16187" fill="url(#polygon16187_1_)" points="120.175,74.811 105.452,74.811 99.085,98.687 72.423,98.687 
		79.188,74.413 64.067,74.811 49.343,123.756 9.152,123.756 46.16,8.357 83.565,8.357 77.597,29.049 90.33,29.447 83.963,52.527 
		113.012,52.527 118.981,29.845 132.113,29.845 137.684,7.958 175.885,7.958 149.224,123.756 107.839,123.756 	"/>
	
		<linearGradient id="polygon16194_1_" gradientUnits="userSpaceOnUse" x1="498.1763" y1="-20.5095" x2="498.1763" y2="8.5906" gradientTransform="matrix(3.9793 0 0 -3.9793 -1785.6204 42.3974)">
		<stop  offset="0" style="stop-color:#D9CDCA"/>
		<stop  offset="1" style="stop-color:#A89F9C"/>
	</linearGradient>
	<polygon id="polygon16194" fill="url(#polygon16194_1_)" points="205.73,124.155 164.743,124.155 190.609,8.357 228.81,8.357 	"/>
	
		<linearGradient id="polygon16201_1_" gradientUnits="userSpaceOnUse" x1="520.2266" y1="-20.4446" x2="520.2266" y2="8.655" gradientTransform="matrix(3.9793 0 0 -3.9793 -1785.6204 42.3974)">
		<stop  offset="0" style="stop-color:#D9CDCA"/>
		<stop  offset="1" style="stop-color:#A89F9C"/>
	</linearGradient>
	<polygon id="polygon16201" fill="url(#polygon16201_1_)" points="288.102,52.129 302.825,52.129 309.192,7.958 347.394,7.958 
		333.864,123.756 292.877,123.756 298.05,86.749 284.123,86.351 287.704,62.475 272.98,62.475 263.032,123.756 221.647,123.756 
		243.534,7.958 281.735,7.958 278.154,29.447 291.285,29.845 	"/>
	
		<linearGradient id="polygon16208_1_" gradientUnits="userSpaceOnUse" x1="549.627" y1="-20.4446" x2="549.627" y2="8.655" gradientTransform="matrix(3.9793 0 0 -3.9793 -1785.6204 42.3974)">
		<stop  offset="0" style="stop-color:#D9CDCA"/>
		<stop  offset="1" style="stop-color:#A89F9C"/>
	</linearGradient>
	<polygon id="polygon16208" fill="url(#polygon16208_1_)" points="450.06,74.413 394.747,74.413 393.155,99.483 449.264,99.881 
		448.07,123.756 349.781,123.756 362.117,7.958 453.243,7.958 452.05,28.253 398.727,28.253 396.737,52.129 451.254,52.129 	"/>
	
		<linearGradient id="path16215_1_" gradientUnits="userSpaceOnUse" x1="685.2266" y1="-20.345" x2="685.2266" y2="8.8552" gradientTransform="matrix(3.9793 0 0 -3.9793 -1785.6204 42.3974)">
		<stop  offset="0" style="stop-color:#D9CDCA"/>
		<stop  offset="1" style="stop-color:#A89F9C"/>
	</linearGradient>
	<path id="path16215" inkscape:connector-curvature="0" fill="url(#path16215_1_)" d="M983.685,7.162l6.367,20.692h-26.661v0.796
		c1.193,4.378,2.388,9.152,3.581,13.53c1.194,4.775,2.785,9.55,3.979,14.325c1.592,4.775,2.785,9.551,4.377,14.724
		c1.592,4.775,3.184,9.948,4.377,14.724c0.797,3.184,1.99,5.969,2.786,9.152s1.989,6.366,2.785,9.152
		c0.796,3.184,1.99,6.367,2.786,9.55c0.796,3.184,1.989,6.367,2.785,9.551h-41.385l-26.264-95.504h-26.661l-5.173-20.692H983.685z"
		/>
	
		<linearGradient id="polygon16222_1_" gradientUnits="userSpaceOnUse" x1="659.7773" y1="-20.3831" x2="659.7773" y2="8.8009" gradientTransform="matrix(3.9793 0 0 -3.9793 -1785.6204 42.3974)">
		<stop  offset="0" style="stop-color:#D9CDCA"/>
		<stop  offset="1" style="stop-color:#A89F9C"/>
	</linearGradient>
	<polygon id="polygon16222" fill="url(#polygon16222_1_)" points="833.267,51.333 888.182,51.333 893.753,74.413 838.042,74.413 
		848.389,123.359 807.004,123.359 785.913,7.561 877.438,7.561 882.213,27.855 828.492,27.855 	"/>
	
		<linearGradient id="path16229_1_" gradientUnits="userSpaceOnUse" x1="633.5273" y1="-20.3918" x2="633.5273" y2="8.7748" gradientTransform="matrix(3.9793 0 0 -3.9793 -1785.6204 42.3974)">
		<stop  offset="0" style="stop-color:#D9CDCA"/>
		<stop  offset="1" style="stop-color:#A89F9C"/>
	</linearGradient>
	<path id="path16229" inkscape:connector-curvature="0" fill="url(#path16229_1_)" d="M728.611,85.953l5.173,37.405h-41.385
		L679.666,7.561h91.523l19.896,116.195h-41.385l-5.57-37.405L728.611,85.953z M755.671,40.589l-2.388-14.724h-17.907l1.592,13.529
		h-14.325l-1.99-13.529h-17.509l1.99,14.724h15.917l0.796,5.571h-7.959l2.786,22.682h9.55l-0.796-7.561h14.325l1.194,7.958h9.948
		l-3.581-22.682h-7.959l-0.796-5.571L755.671,40.589"/>
	
		<linearGradient id="path16236_1_" gradientUnits="userSpaceOnUse" x1="605.7773" y1="-20.4026" x2="605.7773" y2="8.7468" gradientTransform="matrix(3.9793 0 0 -3.9793 -1785.6204 42.3974)">
		<stop  offset="0" style="stop-color:#D9CDCA"/>
		<stop  offset="1" style="stop-color:#A89F9C"/>
	</linearGradient>
	<path id="path16236" inkscape:connector-curvature="0" fill="url(#path16236_1_)" d="M656.983,63.669h13.53l5.969,60.087h-41.385
		l-3.581-48.945l-15.52-0.397l3.184,49.343h-41.385L573.418,7.958h91.524l4.377,42.977H655.79L656.983,63.669z M629.925,52.129
		l-1.592-23.876h-14.724l1.592,23.876H629.925"/>
	
		<linearGradient id="polygon16243_1_" gradientUnits="userSpaceOnUse" x1="577.6777" y1="-20.4114" x2="577.6777" y2="8.7217" gradientTransform="matrix(3.9793 0 0 -3.9793 -1785.6204 42.3974)">
		<stop  offset="0" style="stop-color:#D9CDCA"/>
		<stop  offset="1" style="stop-color:#A89F9C"/>
	</linearGradient>
	<polygon id="polygon16243" fill="url(#polygon16243_1_)" points="559.49,28.253 559.093,7.561 467.568,7.958 463.987,123.756 
		562.276,123.756 561.48,99.881 505.372,99.881 506.565,28.253 	"/>
	<path id="path16247" inkscape:connector-curvature="0" fill="#29282A" d="M15.122,123.756c-3.184,0-3.979,1.99-1.592,3.979
		l28.651,27.457c2.388,2.388,7.163,3.979,10.346,3.979h24.672c3.183,0,3.979-1.989,1.99-4.377l-25.07-26.661
		c-2.388-2.388-6.765-4.378-9.948-4.378H15.122z"/>
	<path id="path16251" inkscape:connector-curvature="0" fill="#29282A" d="M113.808,123.756c-3.183,0-4.377,1.99-1.99,4.378
		l22.284,26.263c1.99,2.388,6.367,4.378,9.948,4.378h25.866c3.184,0,4.377-1.99,2.388-4.775l-19.499-25.865
		c-1.99-2.786-6.367-4.775-9.551-4.775L113.808,123.756z"/>
	<path id="path16255" inkscape:connector-curvature="0" fill="#29282A" d="M78.393,98.687c-3.184,0-4.377,1.989-1.99,4.377
		l24.671,27.855c1.99,2.388,5.969,4.377,8.357,4.377c2.387,0,2.785-2.388,0.796-5.173l-1.194-1.592
		c-1.99-2.785-2.786-7.561-1.99-10.744v-0.796c0.796-3.184,0-7.958-1.99-10.346l-2.388-3.582c-1.99-2.388-6.367-4.774-9.55-4.774
		L78.393,98.687z"/>
	<path id="path16259" inkscape:connector-curvature="0" fill="#29282A" d="M170.712,124.155c-3.184,0-4.377,1.989-2.388,4.775
		l18.703,25.865c1.99,2.785,6.367,4.775,9.55,4.775h25.468c3.184,0,4.377-2.388,2.786-5.174l-15.917-25.069
		c-1.592-2.785-5.969-5.173-9.152-5.173H170.712z"/>
	<path id="path16263" inkscape:connector-curvature="0" fill="#29282A" d="M227.616,123.756c-3.183,0-4.377,2.388-2.785,5.174
		l15.121,25.069c1.592,2.785,5.969,5.173,9.152,5.173h25.07c3.184,0,4.775-2.388,3.184-5.173l-11.938-24.672
		c-1.592-2.785-5.173-5.173-8.754-5.173L227.616,123.756z"/>
	<path id="path16267" inkscape:connector-curvature="0" fill="#29282A" d="M298.846,123.756c-3.183,0-4.775,2.388-3.581,5.571
		l11.54,24.672c1.193,2.785,5.173,5.571,8.356,5.571h25.865c3.184,0,5.174-2.388,3.979-5.571l-9.152-24.672
		c-1.193-3.184-4.775-5.571-7.959-5.571H298.846z"/>
	<path id="path16271" inkscape:connector-curvature="0" fill="#29282A" d="M355.75,123.756c-3.184,0-5.173,2.388-3.979,5.571
		l8.356,23.479c1.194,3.183,4.775,5.57,7.959,5.57h78.79c3.184,0,5.571-2.785,5.174-5.969l-3.184-23.08
		c-0.398-3.184-3.582-5.969-6.765-5.969L355.75,123.756z"/>
	<path id="path16275" inkscape:connector-curvature="0" fill="#29282A" d="M469.956,123.756c-3.184,0-5.571,2.786-5.173,5.97
		l2.388,23.875c0.397,3.184,3.184,5.97,6.765,5.97h78.393c3.184,0,6.367-2.786,6.765-5.97l2.785-23.875
		c0.398-3.184-1.989-5.97-5.173-5.97H469.956z"/>
	<path id="path16279" inkscape:connector-curvature="0" fill="#29282A" d="M584.162,123.756c-3.184,0-6.366,2.786-6.765,5.97
		l-2.785,23.478c-0.398,3.184,1.989,5.969,5.173,5.969h25.468c3.184,0,6.765-2.785,7.162-5.969l5.571-23.876
		c0.796-3.184-1.193-5.969-4.377-5.969L584.162,123.756z"/>
	<path id="path16283" inkscape:connector-curvature="0" fill="#29282A" d="M641.066,123.756c-3.184,0-6.765,2.786-7.163,5.97
		l-5.57,23.478c-0.796,3.184,1.193,5.969,4.774,5.969h25.468c3.184,0,6.765-2.388,7.959-5.571l8.356-23.478
		c1.193-3.184-0.796-5.571-3.979-5.571L641.066,123.756z"/>
	<path id="path16287" inkscape:connector-curvature="0" fill="#29282A" d="M698.368,123.359c-3.183,0-6.765,2.388-7.958,5.571
		l-8.356,24.273c-1.194,3.184,0.796,5.571,3.979,5.571H711.5c3.184,0,7.163-2.388,8.356-5.571l11.54-24.672
		c1.194-2.785,0-5.571-3.581-5.571L698.368,123.359z"/>
	<path id="path16291" inkscape:connector-curvature="0" fill="#29282A" d="M755.671,123.359c-3.184,0-7.163,2.388-8.755,5.173
		l-11.938,24.672c-1.592,2.785,0,5.173,3.184,5.173h26.263c3.184,0,7.163-2.388,8.755-5.173l14.325-25.069
		c1.592-2.786,0.398-5.174-2.785-5.174L755.671,123.359z"/>
	<path id="path16295" inkscape:connector-curvature="0" fill="#29282A" d="M812.973,123.359c-3.184,0-7.163,2.388-9.152,5.173
		l-15.52,25.069c-1.592,2.786-0.397,5.174,2.785,5.174h25.866c3.184,0,7.561-1.99,9.55-4.775l18.305-25.865
		c1.99-2.786,0.796-4.775-2.387-4.775H812.973z"/>
	<path id="path16299" inkscape:connector-curvature="0" fill="#29282A" d="M955.83,123.359c-3.184,0-7.561,1.989-9.948,4.377
		l-23.08,26.264c-1.99,2.388-1.194,4.377,1.989,4.377h24.672c3.184,0,7.959-1.989,10.346-3.979l27.458-26.661
		c2.388-2.388,1.591-3.979-1.592-3.979L955.83,123.359z"/>
	<path id="path16303" inkscape:connector-curvature="0" fill="#030303" d="M39.395,27.457c-0.398,0.796,1.99,1.193,5.571,1.193
		h27.059c3.184,0,5.969-0.796,5.969-1.592c0-0.795-2.786-1.591-5.969-1.591H45.762C42.579,25.865,39.793,26.661,39.395,27.457z"/>
	<path id="path16307" inkscape:connector-curvature="0" fill="#030303" d="M37.008,86.749c1.193-3.184-0.796-5.571-3.979-5.571
		h-5.969c-3.183,0-5.969,0.397-5.969,1.193s2.786,1.194,5.969,1.194h2.388c3.184,0,5.173,2.388,3.979,5.571l-5.969,17.906
		c-1.193,3.184,0.796,5.571,3.979,5.571h19.896c3.184,0,5.969-0.398,5.969-1.194c0-0.795-2.786-1.193-5.969-1.193H34.62
		c-3.184,0-5.173-2.388-3.979-5.571v-0.397c1.194-3.184,4.377-5.571,7.958-5.571h15.122c3.184,0,5.969-0.397,5.969-1.193
		s-2.785-1.194-5.969-1.194H39.395c-3.183,0-5.173-2.388-3.979-5.571L37.008,86.749z"/>
	<path id="path16311" inkscape:connector-curvature="0" fill="#030303" d="M150.02,33.029c0.398-3.184-1.592-5.97-5.173-5.97h-7.163
		c-3.184,0-6.367,0.398-6.367,1.194c-0.398,0.796,2.387,1.193,5.571,1.193h5.173c3.183,0,5.571,2.786,5.173,5.97l-0.796,7.561
		c-0.398,3.184-3.582,5.969-6.765,5.969h-25.07c-3.184,0-5.969,0.397-5.969,1.193s2.785,1.194,5.969,1.194h24.672
		c3.183,0,6.367,0,6.765,0s3.582,0,6.765,0h11.938c3.184,0,5.969-0.398,5.969-1.194s-2.786-1.193-5.969-1.193h-10.744
		c-3.183,0-5.571-2.785-5.173-5.969L150.02,33.029z"/>
	<path id="path16315" inkscape:connector-curvature="0" fill="#030303" d="M185.833,110.227c0.398-3.184,0.398-4.775-0.796-3.184
		c-0.795,1.592-2.387,5.571-2.785,8.755l-0.796,3.184c-0.796,3.183,0.398,7.958,2.388,10.744l0.795,1.193
		c1.99,2.785,4.775,5.969,6.367,7.163c1.592,1.193,1.592,0-0.398-2.786l-3.979-5.969c-1.99-2.785-2.785-7.561-2.387-10.744
		L185.833,110.227z"/>
	<path id="path16319" inkscape:connector-curvature="0" fill="#030303" d="M226.423,31.437c0-0.796-2.786-1.194-5.969-1.194h-9.55
		c-3.184,0-4.775,0.398-3.184,1.194c1.592,0.397,5.571,1.193,8.754,1.193h3.979C223.637,32.63,226.423,32.233,226.423,31.437z"/>
	<path id="path16323" inkscape:connector-curvature="0" fill="#030303" d="M241.942,116.196c0.796-3.184,0.398-4.377-0.398-2.785
		c-1.194,1.592-2.388,4.377-2.786,6.765c-0.398,1.989,0,5.969,0.796,8.356s2.786,5.571,3.582,7.163c1.194,1.193,1.194,0,0-3.184
		l-0.796-3.184c-1.194-3.184-1.194-8.356-0.398-11.54V116.196z"/>
	<path id="path16327" inkscape:connector-curvature="0" fill="#030303" d="M232.392,86.351c-3.184,0-5.969,0.398-5.969,0.796
		c0,0.398,2.785,1.194,5.969,1.592l29.049,1.592c3.184,0,6.765,1.592,7.561,2.785c0.796,1.592,2.388,2.388,2.786,1.99
		c0.398-0.398,0-1.99-1.194-3.979c-1.194-1.592-4.775-3.184-7.958-3.581L232.392,86.351z"/>
	<path id="path16331" inkscape:connector-curvature="0" fill="#030303" d="M263.828,27.457c1.194,0.796,4.775,1.592,7.958,1.592
		h1.194c3.184,0,5.969-0.398,5.969-1.194s-2.786-1.193-5.969-1.591h-5.571C264.226,26.264,262.634,26.661,263.828,27.457z"/>
	<path id="path16335" inkscape:connector-curvature="0" fill="#030303" d="M300.438,87.147c-3.183,0-5.969,0.796-5.969,1.592
		s2.786,1.193,5.969,1.193l16.315-0.795c3.184,0,5.571,2.387,5.173,5.57l-3.581,23.08c-0.398,3.184,0,8.356,0.796,11.54l0.397,1.592
		c0.796,3.184,2.786,7.163,3.979,8.755c1.194,1.592,1.592,0.796,0.398-2.388l-2.388-7.959c-0.796-3.184-1.194-8.356-0.796-11.54
		l3.979-25.468c0.397-3.183-1.592-5.969-5.174-5.57L300.438,87.147z"/>
	<path id="path16339" inkscape:connector-curvature="0" fill="#030303" d="M306.009,27.059c0,0.796,2.388,1.592,5.571,2.388
		l28.65,3.184c3.184,0.398,5.97,0,5.97-0.397c0-0.796-2.786-1.592-5.97-1.99l-28.253-3.184
		C308.794,26.264,306.009,26.264,306.009,27.059z"/>
	<path id="path16343" inkscape:connector-curvature="0" fill="#030303" d="M370.871,103.462c0-3.184-2.387-5.969-5.57-5.969h-9.551
		c-3.184,0-5.969,0.397-5.969,1.193s2.785,1.194,5.969,1.194h6.765c3.184,0,5.97,2.785,5.571,5.969l-0.397,11.54
		c0,3.184,0.397,8.356,1.193,11.54l1.592,6.765c0.796,3.184,2.388,7.162,3.184,8.754s1.193,0.398,0.397-2.785l-2.785-13.132
		c-0.796-3.184-1.194-8.356-1.194-11.938L370.871,103.462z"/>
	<path id="path16347" inkscape:connector-curvature="0" fill="#030303" d="M355.75,41.782c0,0.796,2.785,1.194,5.969,1.194h9.152
		c3.184,0,7.163-0.796,8.755-1.592s0-1.592-3.184-1.194l-14.724,0.398C358.535,40.191,355.75,40.987,355.75,41.782L355.75,41.782z"
		/>
	<path id="path16351" inkscape:connector-curvature="0" fill="#030303" d="M425.388,55.313c0-3.184-0.796-5.97-1.592-5.97
		s-1.193,2.786-1.193,5.97v11.142c0,3.184,0.796,4.377,1.592,2.785c0.796-1.591,1.592-5.969,1.193-9.152V55.313z"/>
	<path id="path16355" inkscape:connector-curvature="0" fill="#030303" d="M437.724,100.279c0,3.184-2.785,5.571-5.969,5.571h-7.163
		c-3.184,0-5.969,2.785-5.969,5.969v7.163c0,3.183,0.398,5.969,1.194,5.969s1.193-2.786,1.193-5.969v-4.378
		c0-3.184,2.785-5.969,5.969-5.969h7.163c3.184,0,5.969-2.785,5.969-5.969v-1.592c0-3.184-0.397-5.969-1.193-5.969
		C438.52,95.106,437.724,97.493,437.724,100.279z"/>
	<path id="path16359" inkscape:connector-curvature="0" fill="#030303" d="M541.186,106.247c-0.397,1.194-0.796,4.775-0.397,7.959
		l0.397,3.979c0.398,3.184,0.398,8.754,0,11.938l-3.581,24.672c-0.397,3.184,0,5.969,0.796,5.969s1.989-2.785,2.388-5.969
		l3.184-24.273c0.397-3.184,0.397-8.755,0-11.938l-0.796-7.958C542.38,106.646,541.584,105.054,541.186,106.247L541.186,106.247z"/>
	<path id="path16363" inkscape:connector-curvature="0" fill="#030303" d="M465.181,146.04c0,0.796,2.786,1.194,5.97,1.194h0.397
		c3.184,0,5.969-0.398,5.969-1.194s-2.785-1.193-5.969-1.193h-0.397C467.967,144.448,465.181,145.244,465.181,146.04z"/>
	<path id="path16367" inkscape:connector-curvature="0" fill="#030303" d="M474.731,44.966c1.193,0.796,5.173,1.99,8.356,2.388
		l19.896,3.184c3.184,1.193,5.571,1.989,5.969,1.193c0.398-0.796-1.989-1.989-5.173-3.184l-25.468-4.377
		C475.129,44.17,473.538,44.17,474.731,44.966L474.731,44.966z"/>
	<path id="path16371" inkscape:connector-curvature="0" fill="#030303" d="M474.333,68.445c1.194-0.796-0.397-1.194-3.581-1.194
		s-5.969,0.796-5.969,1.592s1.592,1.193,3.581,1.193C470.354,70.035,473.14,69.24,474.333,68.445z"/>
	<path id="path16375" inkscape:connector-curvature="0" fill="#030303" d="M591.723,46.16c0,1.591,3.184,2.785,6.367,2.785h1.194
		c3.183,0,6.366,0,6.765,0.397c0.397,0,1.989,1.194,2.785,0.796c0.796-0.397,0-1.193-0.796-2.388
		c-1.193-0.795-4.775-1.591-7.958-1.591c-3.184,0-5.97-2.786-6.367-5.97l-3.184-28.65c-0.398-3.184-1.193-5.969-1.99-5.969
		c-0.795,0-0.795,2.785-0.397,5.969l2.388,22.682c0.397,3.184-1.99,5.969-5.173,5.969h-7.561c-3.184,0-5.97,0.398-5.97,1.194
		s2.786,1.193,5.97,1.193h7.561C588.938,43.374,591.723,44.569,591.723,46.16z"/>
	<path id="path16379" inkscape:connector-curvature="0" fill="#030303" d="M588.142,105.054c0.398,3.184-0.796,7.958-2.388,10.744
		c-1.592,2.785-2.785,7.561-1.989,7.958c0.796,0.398,1.989-1.989,2.785-5.173c0.796-2.785,3.581-5.571,3.979-5.571
		c0.397,0,0.397-2.785,0.397-5.969l-0.796-12.336c-0.397-3.184,2.388-5.969,5.571-5.969h19.101c3.184,0,5.969-0.397,5.969-1.193
		s-2.785-1.194-5.969-1.194h-21.886c-3.184,0-5.969,2.786-5.571,5.969L588.142,105.054z"/>
	<path id="path16383" inkscape:connector-curvature="0" fill="#030303" d="M630.721,95.106c0,0.796,2.785,1.193,5.969,1.193h12.336
		c3.184,0,7.162-0.397,8.356-1.193c1.193-0.796-0.398-1.194-3.581-1.194h-17.111C633.506,93.911,630.721,94.31,630.721,95.106
		L630.721,95.106z"/>
	<path id="path16387" inkscape:connector-curvature="0" fill="#030303" d="M642.261,59.291c0.796,0.796,3.979,1.194,7.162,1.194
		h2.786c3.183,0,5.969-0.398,5.969-1.194s-2.786-1.193-5.969-1.193h-5.571C643.852,58.098,641.862,58.894,642.261,59.291z"/>
	<path id="path16391" inkscape:connector-curvature="0" fill="#030303" d="M573.021,148.031c0,0.796,2.388,1.592,5.969,1.592
		l29.049,1.989c3.184,0.398,5.969,0,5.969-0.796s-2.388-1.592-5.969-1.592l-29.049-1.989
		C575.806,146.836,573.418,147.235,573.021,148.031z"/>
	<path id="path16395" inkscape:connector-curvature="0" fill="#030303" d="M748.905,93.911c-3.183,0-5.969,0.796-5.969,1.194
		c0,0.796,2.786,1.193,5.969,1.193l35.416,3.979c3.184,0.397,5.969,0,6.367-0.796c0.397-0.796-2.388-1.592-5.571-1.592
		L748.905,93.911z"/>
	<path id="path16399" inkscape:connector-curvature="0" fill="#030303" d="M862.714,47.354c-0.796,0.397-1.193,3.184-0.796,6.367
		c0,0,4.775,13.529,3.184,16.314c-1.592,2.786-1.989,5.174-1.193,5.571c0.795,0.398,2.387-1.989,3.581-4.775l-3.581-17.906
		C863.908,49.741,863.51,47.354,862.714,47.354z"/>
	<path id="path16403" inkscape:connector-curvature="0" fill="#030303" d="M843.215,15.917c-2.785,0-5.57-2.388-6.366-5.173
		c-0.796-2.786-1.99-4.775-2.786-4.378c-0.796,0.398-0.397,2.786,0.398,5.97v0.397c0.796,3.184,3.979,5.571,6.765,5.571
		s5.571,2.388,6.765,5.571l0.796,2.785c1.194,3.184,2.388,5.571,3.184,5.173c0.796-0.397,0.398-2.785-0.796-5.969l-1.592-4.377
		C849.185,18.702,846.001,15.917,843.215,15.917z"/>
	<path id="path16407" inkscape:connector-curvature="0" fill="#030303" d="M943.494,89.137c-3.184,0-5.969,0.397-5.969,1.193
		s2.785,1.193,5.969,1.193h33.426c3.184,0,5.969-0.397,5.969-1.193s-2.785-1.193-5.969-1.193H943.494z"/>
	<path id="path16411" inkscape:connector-curvature="0" fill="#030303" d="M968.961,29.845c0.796,0,0.398-2.786-0.397-5.969
		l-3.184-11.54c-0.796-3.184-1.989-5.571-2.785-5.571s-0.398,2.785,0.397,5.969l3.184,11.54
		C967.37,27.457,968.563,29.845,968.961,29.845z"/>
	<path id="path16419" inkscape:connector-curvature="0" fill="#030303" d="M130.521,29.049h10.744c3.183,0,3.183-0.398,0-1.194
		l-2.786-0.397c-3.184-0.796-5.571,0-5.571,1.193C132.909,28.651,132.909,28.651,130.521,29.049z"/>
	<path id="path16423" inkscape:connector-curvature="0" fill="#030303" d="M67.25,140.867c-1.194-1.193-4.775-1.989-7.959-1.592
		l-5.571,0.796c-3.184,0.398-3.184,1.194,0,1.592l9.55,1.193C66.455,142.857,68.444,142.459,67.25,140.867z"/>
	<path id="path16427" inkscape:connector-curvature="0" fill="#030303" d="M174.293,154.795c-0.795-1.194-3.979-1.989-7.561-1.989
		l-12.734,1.193c-3.183,0.397-3.183,0.796,0,1.193l15.917,1.592C173.1,156.784,175.089,155.989,174.293,154.795L174.293,154.795z"/>
	<path id="path16431" inkscape:connector-curvature="0" fill="#030303" d="M303.621,149.622c-0.397-1.194,1.99-1.99,5.173-1.99
		h2.388c3.184,0,3.184,0.796,0.398,1.99l-1.592,0.397C306.805,150.816,304.02,150.816,303.621,149.622z"/>
	<path id="path16435" inkscape:connector-curvature="0" fill="#030303" d="M451.651,141.266c-0.397-1.592-3.184-2.786-6.367-2.388
		l-8.754,1.193c-3.184,0.398-3.184,1.194,0,1.592l9.55,1.592C449.662,144.051,452.05,143.255,451.651,141.266L451.651,141.266z"/>
	<path id="path16439" inkscape:connector-curvature="0" fill="#030303" d="M463.987,147.632c0-1.592,2.388-2.785,5.173-2.388
		c3.184,0.398,3.184,1.592,0.398,3.184C466.772,150.02,464.385,149.224,463.987,147.632L463.987,147.632z"/>
	<path id="path16443" inkscape:connector-curvature="0" fill="#030303" d="M370.474,118.583c-0.398-2.388-1.194-2.785-1.592-0.397
		s0,6.765,0.796,9.948l0.397,1.193c0.796,3.184,1.592,3.184,1.194,0C371.27,125.746,370.871,120.971,370.474,118.583
		L370.474,118.583z"/>
	<path id="path16447" inkscape:connector-curvature="0" fill="#030303" d="M419.419,120.573c-0.397-1.194-0.796,0.796-0.796,3.979
		v0.398c0,3.184,0.398,3.979,1.194,1.592C420.215,124.155,420.215,121.369,419.419,120.573L419.419,120.573z"/>
	<path id="path16451" inkscape:connector-curvature="0" fill="#030303" d="M319.937,119.379c0-2.388-0.398-2.388-1.194,0
		c-0.397,2.388,0,7.163,1.194,10.347l0.397,1.193c1.194,3.184,1.592,3.184,0.796-0.397v-0.796
		C320.732,126.542,319.937,121.767,319.937,119.379L319.937,119.379z"/>
	<path id="path16455" inkscape:connector-curvature="0" fill="#030303" d="M239.952,121.369c-0.398-1.194-1.194-0.796-1.592,0.397
		s0,3.581,1.194,5.173s1.99,1.592,1.592-0.397C240.748,124.552,240.35,122.164,239.952,121.369z"/>
	<path id="path16459" inkscape:connector-curvature="0" fill="#030303" d="M183.844,119.379c-0.398-2.388-1.592-2.388-2.388,0.796
		c-0.796,2.785,0.398,6.765,2.388,9.152c1.989,1.99,3.183,1.99,2.387-0.796C185.833,126.144,184.64,122.164,183.844,119.379z"/>
	<path id="path16463" inkscape:connector-curvature="0" fill="#030303" d="M83.167,115.798c-0.796-1.194,1.194-1.592,4.377-1.194
		l7.561,0.796c3.184,0.398,3.184,0.796,0,1.194l-4.377,0.397C87.545,117.39,83.963,116.991,83.167,115.798z"/>
	<path id="path16467" inkscape:connector-curvature="0" fill="#030303" d="M541.584,118.186c0.397-3.184,1.592-3.184,1.989,0l0,0
		c0.796,3.184,0.398,8.356-0.397,11.54l-0.796,2.785c-0.796,3.184-1.592,3.184-1.592,0v-2.388
		C540.788,126.542,541.186,121.369,541.584,118.186L541.584,118.186z"/>
	<path id="path16471" inkscape:connector-curvature="0" fill="#030303" d="M508.157,52.925c0,1.193-2.388,0.796-4.774-1.194
		l-0.796-0.397c-2.786-1.99-2.388-2.786,0.397-1.99C505.77,49.741,508.157,51.333,508.157,52.925L508.157,52.925z"/>
	<path id="path16475" inkscape:connector-curvature="0" fill="#030303" d="M672.105,138.082c0.397-1.194-1.99-1.99-5.174-1.99
		h-2.785c-3.184,0-3.184,0.796-0.398,1.592l1.99,0.398C668.922,139.674,671.707,139.276,672.105,138.082z"/>
	<path id="path16479" inkscape:connector-curvature="0" fill="#030303" d="M651.015,120.573c-0.796-1.592-1.193-0.796-1.193,2.387
		c0,3.184,0.796,4.378,1.592,3.184C652.209,124.552,651.811,122.164,651.015,120.573L651.015,120.573z"/>
	<path id="path16483" inkscape:connector-curvature="0" fill="#030303" d="M725.826,143.653c0.397-1.193-1.99-1.989-5.174-1.989
		l-9.152,0.796c-3.184,0.397-3.184,0.796,0,1.193l7.561,1.194C722.244,145.643,725.428,144.847,725.826,143.653L725.826,143.653z"/>
	<path id="path16487" inkscape:connector-curvature="0" fill="#030303" d="M715.082,120.971c-0.398-1.193-1.194-1.592-1.592-0.397
		c-0.398,1.193-0.398,3.979,0.397,6.366c0.398,2.388,1.194,2.388,1.592,0.398C715.878,125.348,715.878,122.563,715.082,120.971z"/>
	<path id="path16491" inkscape:connector-curvature="0" fill="#030303" d="M864.306,76.403c-1.194-0.397-0.796-2.785,0.397-5.571
		c1.194-2.785,1.99-2.387,1.99,0.796C866.693,74.811,865.102,76.801,864.306,76.403z"/>
	<path id="path16495" inkscape:connector-curvature="0" fill="#030303" d="M793.474,140.47c1.194-1.194,4.378-1.99,7.959-1.592
		l13.529,2.388c3.184,0.397,3.184,0.796,0,1.193l-17.11,0.397C794.27,142.857,792.678,142.062,793.474,140.47L793.474,140.47z"/>
	<path id="path16499" inkscape:connector-curvature="0" fill="#030303" d="M931.556,140.47c1.194-1.592,4.775-2.786,8.356-1.99
		l12.336,2.388c3.184,0.796,3.184,1.194,0,1.592l-16.713,0.796C931.954,143.653,930.362,142.459,931.556,140.47L931.556,140.47z"/>
	<path id="path16503" inkscape:connector-curvature="0" fill="#030303" d="M937.127,90.33c-0.398-1.989,1.592-3.184,4.775-2.785
		l10.744,1.592c3.184,0.397,3.184,1.193,0,1.989l-8.755,1.592C940.708,93.115,937.524,91.922,937.127,90.33L937.127,90.33z"/>
	<path id="path16507" inkscape:connector-curvature="0" fill="#030303" d="M922.802,31.834c-0.796-0.796-1.592-3.979-1.99-7.162
		c-0.397-3.184,0.398-3.184,1.194,0l0.796,2.785C923.995,30.641,923.995,32.63,922.802,31.834z"/>
	<path id="path16511" inkscape:connector-curvature="0" fill="#030303" d="M789.097,102.268l-7.163-2.785
		c-3.184-1.193-2.785-1.989,0.398-1.592l7.561,0.796"/>
	<path id="path16515" inkscape:connector-curvature="0" fill="#030303" d="M500.597,126.542c0.398-1.592,0.398-3.979,0-5.571
		c-0.397-1.592-3.581-2.785-7.162-2.785h-1.99c-3.184,0-6.765,1.592-7.958,3.183c-1.194,1.592,0.795,3.979,3.979,4.775l6.367,1.592
		C497.016,128.531,500.199,128.134,500.597,126.542z"/>
	<path id="path16519" inkscape:connector-curvature="0" fill="#030303" d="M495.822,122.164c-1.99-1.989-1.99-3.979,0.397-3.979
		c1.989,0,4.775,1.193,5.571,2.388c1.193,1.193,0.397,4.774-1.194,7.162c-1.592,2.786-2.785,3.582-1.989,1.592
		C498.607,127.736,497.413,124.552,495.822,122.164L495.822,122.164z"/>
	<path id="path16523" inkscape:connector-curvature="0" fill="#030303" d="M305.611,27.855c0.397-1.591,3.183-2.387,6.366-1.591
		h0.398c3.184,0.795,3.184,1.989,0,2.785l-1.194,0.397C307.601,30.242,305.213,29.447,305.611,27.855z"/>
	<path id="path16527" inkscape:connector-curvature="0" fill="#030303" d="M169.519,50.537c-0.398,1.193-3.582,1.193-6.765,0.397
		h-0.796c-3.184-0.796-3.184-1.592,0-1.592h2.387C167.927,48.946,169.917,49.741,169.519,50.537L169.519,50.537z"/>
	<path id="path16531" inkscape:connector-curvature="0" fill="#030303" d="M60.087,97.095c0.398-1.193-1.592-1.989-5.173-1.193
		l-3.582,0.796c-3.184,0.796-3.184,1.592,0,1.989l1.592,0.398C56.506,99.085,59.689,98.289,60.087,97.095L60.087,97.095z"/>
	<path id="path16535" inkscape:connector-curvature="0" fill="#29282A" d="M68.444,141.266c-0.796-1.194-0.796-4.378,0-7.562
		l0.795-2.785c0.796-3.184,1.592-3.184,1.592,0.398l-0.398,5.969C70.036,140.47,69.24,142.459,68.444,141.266z"/>
	<path id="path16539" inkscape:connector-curvature="0" fill="#29282A" d="M173.498,155.193c-0.796-0.397-0.796-3.183,0-5.57
		c0.795-2.388,1.591-1.99,1.591,1.193S174.293,155.989,173.498,155.193z"/>
	<path id="path16543" inkscape:connector-curvature="0" fill="#29282A" d="M268.206,91.922c0-1.99,0.795-0.796,1.989,1.989
		l0.398,0.796c1.194,3.184,1.194,4.378,0,3.184C269.399,96.698,268.206,93.911,268.206,91.922z"/>
	<path id="path16547" inkscape:connector-curvature="0" fill="#29282A" d="M795.065,142.459c1.194-0.796,1.194-3.979,0.398-7.163
		l-0.796-3.183c-0.796-3.184-1.592-3.184-1.592,0.397v5.571C793.076,141.266,793.872,143.255,795.065,142.459L795.065,142.459z"/>
	<path id="path16551" inkscape:connector-curvature="0" fill="#29282A" d="M933.546,141.266c1.592-0.796,1.592-3.979,0.397-6.766
		l-5.173-11.142c-1.194-2.785-1.989-2.785-1.592,0.397l2.388,13.132C930.362,140.072,931.954,142.062,933.546,141.266
		L933.546,141.266z"/>
	<path id="path16555" inkscape:connector-curvature="0" fill="#29282A" d="M939.515,89.932c-0.398-1.193-2.388,0.398-3.581,3.184
		l-5.174,10.744c-1.592,2.786-1.193,3.184,0.796,0.398l5.571-7.561C939.116,94.31,939.912,91.126,939.515,89.932z"/>
	<path id="path16559" inkscape:connector-curvature="0" fill="#030303" d="M849.185,32.233l0.397-6.367c0-3.184,0.796-3.184,1.592,0
		l1.989,7.163"/>
	<path id="path16563" inkscape:connector-curvature="0" fill="#5A5558" d="M48.547,144.448c-2.785-0.796-2.387-1.193,0.398-1.193
		c2.786,0.397,7.163,0.796,9.55,1.193c2.388,0.398,1.99,0.796-0.398,1.194C55.313,145.643,50.935,145.244,48.547,144.448z"/>
	<path id="path16567" inkscape:connector-curvature="0" fill="#5A5558" d="M181.854,129.726c-2.388-2.388-2.388-1.99-0.398,0.796
		l1.592,1.989c1.989,2.785,4.775,5.571,6.367,6.765c1.592,1.194,1.592,0-0.398-1.989
		C187.027,135.296,183.844,131.715,181.854,129.726L181.854,129.726z"/>
	<path id="path16571" inkscape:connector-curvature="0" fill="#5A5558" d="M235.575,123.756c-0.796,0-0.398,1.99,0.796,4.378
		c1.193,2.388,1.591,2.388,1.193,0C237.167,125.746,236.371,123.756,235.575,123.756z"/>
	<path id="path16575" inkscape:connector-curvature="0" fill="#5A5558" d="M313.172,150.418c-2.388-0.398-1.592-0.796,1.592-1.592
		l1.989-0.398c3.184-0.397,4.775-0.397,3.184,0.796C318.345,150.02,315.161,150.816,313.172,150.418L313.172,150.418z"/>
	<path id="path16579" inkscape:connector-curvature="0" fill="#5A5558" d="M366.893,128.134c-1.194-1.592-1.592-0.398-0.796,1.989
		c0.397,2.785,1.989,6.765,3.183,9.152c1.194,2.388,1.592,1.592,0.796-1.592l-0.397-1.193
		C369.678,133.307,368.086,129.327,366.893,128.134L366.893,128.134z"/>
	<path id="path16583" inkscape:connector-curvature="0" fill="#5A5558" d="M545.563,132.511c-0.398-1.592-1.194-1.592-1.99,0.796
		s-1.193,5.969-1.193,8.755c0,2.785,0.796,2.387,1.989-0.796l0,0C545.563,138.48,545.961,134.5,545.563,132.511z"/>
	<path id="path16587" inkscape:connector-curvature="0" fill="#5A5558" d="M486.271,120.971c-0.398-1.592-1.99-1.592-2.785,0.796
		c-1.194,1.989,0.397,4.775,3.183,6.367c2.786,1.592,3.979,1.193,2.786-0.796C488.261,125.746,486.669,122.96,486.271,120.971z"/>
	<path id="path16591" inkscape:connector-curvature="0" fill="#5A5558" d="M586.152,151.214c-2.786-0.796-1.99-1.194,1.193-1.194
		s7.959,0.796,10.744,1.592s1.99,1.592-1.193,1.194C593.314,152.806,588.539,152.01,586.152,151.214z"/>
	<path id="path16595" inkscape:connector-curvature="0" fill="#5A5558" d="M653.402,128.134c-0.398-1.194-1.193,0-1.989,1.989
		c-0.796,1.99-0.796,3.184,0.397,1.99C653.004,130.919,653.8,128.93,653.402,128.134z"/>
	<path id="path16599" inkscape:connector-curvature="0" fill="#5A5558" d="M718.265,125.746c-0.397-1.194-1.193,0-1.989,1.989
		c-0.796,2.388-0.796,3.184,0.398,1.99C717.867,128.531,718.663,126.542,718.265,125.746z"/>
	<path id="path16603" inkscape:connector-curvature="0" fill="#5A5558" d="M707.919,145.244c-3.184-0.397-2.785-1.193,0.397-1.592
		h1.194c3.184-0.397,7.163,0,8.754,1.194c1.592,0.796,1.194,1.592-1.193,1.592C715.082,146.439,711.103,145.643,707.919,145.244z"/>
	<path id="path16607" inkscape:connector-curvature="0" fill="#5A5558" d="M803.422,144.847c-2.785,0.397-2.785-0.398,0-1.194
		c2.786-0.796,7.561-1.193,10.744-0.796l2.786,0.398c3.184,0.397,3.184,0.796,0,0.796h-2.786
		C810.982,144.448,805.81,144.847,803.422,144.847z"/>
	<path id="path16611" inkscape:connector-curvature="0" fill="#29282A" d="M864.703,77.198c-1.193,0.398-3.581,3.184-4.774,5.969
		c-1.194,2.786-0.398,2.786,1.592,0.398l1.989-2.786C865.897,78.393,866.295,76.403,864.703,77.198z"/>
	<path id="path16615" inkscape:connector-curvature="0" fill="#030303" d="M969.359,31.038c-1.193,0-2.388-2.785-2.785-5.969v-1.193
		c-0.398-3.184,0.397-3.582,1.989-0.398l0.796,1.99C970.553,28.651,970.553,31.038,969.359,31.038z"/>
	<path id="path16619" inkscape:connector-curvature="0" fill="#030303" d="M572.225,42.977c0-1.592,2.388-2.786,5.571-2.388h0.796
		c3.183,0,3.581,1.193,0.397,2.388l-1.193,0.397C575.01,44.966,572.225,44.569,572.225,42.977z"/>
	<path id="path16623" inkscape:connector-curvature="0" fill="#030303" d="M424.592,48.547c-1.193-0.397-1.592,1.592-1.193,4.775
		v1.194c0.397,3.184,1.193,3.581,1.989,0.397C425.786,52.129,425.388,48.946,424.592,48.547z"/>
	<path id="path16627" inkscape:connector-curvature="0" fill="#030303" d="M292.081,89.534c-0.398-1.193,1.99-1.989,5.173-1.989
		h10.346c3.184,0,3.184,0.397,0,1.193l-9.152,1.989C295.663,91.126,292.479,90.728,292.081,89.534z"/>
	<path id="path16631" inkscape:connector-curvature="0" fill="#030303" d="M57.7,112.615c0-0.796-2.388-1.592-5.571-1.592h-1.592
		c-3.183,0-3.183,0.796,0,1.592l1.194,0.397C54.517,113.41,57.302,113.41,57.7,112.615z"/>
	<path id="path16635" inkscape:connector-curvature="0" fill="#E0DBD6" d="M16.315,122.164c-3.184,0-5.571,0.398-4.775,1.194
		c0.398,0.397,3.582,1.193,7.163,1.193h20.692c3.184,0,6.367-0.397,7.163-1.193c0.795-0.796-1.592-1.194-4.775-1.194H16.315z"/>
	<path id="path16639" inkscape:connector-curvature="0" fill="#E0DBD6" d="M115.798,122.164c-3.184,0-5.571,0.398-4.775,1.194
		c0.398,0.397,3.582,1.193,7.163,1.193h20.692c3.184,0,6.367-0.397,7.163-1.193c0.398-0.796-1.592-1.194-4.775-1.194H115.798z"/>
	<path id="path16643" inkscape:connector-curvature="0" fill="#E0DBD6" d="M171.906,121.767c-3.184,0-5.969,0.796-5.571,1.193
		c0,0.398,2.786,1.194,5.969,1.194c3.183,0,5.571-0.398,5.969-1.194c0-0.796-2.388-1.193-5.571-1.193H171.906z"/>
	<path id="path16647" inkscape:connector-curvature="0" fill="#E0DBD6" d="M72.025,72.822c-3.184,0-5.969,0.796-5.571,1.193
		c0,0.398,2.785,1.194,5.969,1.194s5.571-0.398,5.969-1.194c0-0.796-2.388-1.193-5.571-1.193H72.025z"/>
	<path id="path16651" inkscape:connector-curvature="0" fill="#E0DBD6" d="M113.41,72.822c-3.183,0-5.969,0.796-5.571,1.193
		c0,0.398,2.786,1.194,5.969,1.194c3.184,0,5.571-0.398,5.969-1.194s-2.388-1.193-5.571-1.193H113.41z"/>
	<path id="path16655" inkscape:connector-curvature="0" fill="#E0DBD6" d="M30.641,79.586c-3.184,0-5.571,0.796-5.173,1.193
		c0,0.398,2.387,1.194,5.173,1.194s5.173-0.398,5.173-1.194S33.426,79.586,30.641,79.586z"/>
	<path id="path16659" inkscape:connector-curvature="0" fill="#E0DBD6" d="M80.382,96.299c-3.183,0-5.571,0.398-5.173,1.194
		c0.398,0.397,3.184,1.193,6.765,1.193h8.754c3.184,0,6.367-0.397,6.765-1.193s-1.99-1.194-5.173-1.194H80.382z"/>
	<path id="path16663" inkscape:connector-curvature="0" fill="#E0DBD6" d="M57.7,24.672c-3.184,0-5.571,0.397-5.173,1.193
		s3.184,1.193,6.765,1.193h8.755c3.183,0,6.367-0.397,6.765-1.193s-1.99-1.193-5.173-1.193H57.7z"/>
	<path id="path16667" inkscape:connector-curvature="0" fill="#E0DBD6" d="M229.208,121.767c-3.183,0-5.969,0.796-5.571,1.193
		c0.398,0.398,2.786,1.194,5.969,1.194c3.184,0,5.571-0.398,5.969-1.194c0-0.796-2.388-1.193-5.571-1.193H229.208z"/>
	<path id="path16671" inkscape:connector-curvature="0" fill="#E0DBD6" d="M327.099,121.767c-3.183,0-5.57,0.796-5.173,1.193
		c0,0.398,2.388,1.194,5.173,1.194c2.786,0,5.174-0.398,5.174-1.194C332.67,122.164,330.282,121.767,327.099,121.767z"/>
	<path id="path16675" inkscape:connector-curvature="0" fill="#E0DBD6" d="M247.513,121.767c-3.183,0-5.571,0.397-5.571,1.193
		c0.398,0.398,3.184,1.194,6.367,1.194h6.367c3.184,0,6.367-0.398,6.367-1.194c0.398-0.796-1.99-1.193-5.571-1.193H247.513z"/>
	<path id="path16679" inkscape:connector-curvature="0" fill="#E0DBD6" d="M299.642,121.767c-3.183,0-5.571,0.397-5.173,1.193
		c0.398,0.398,3.184,1.194,6.765,1.194h8.356c3.184,0,6.367-0.398,6.765-1.194c0.398-0.796-1.989-1.193-5.173-1.193H299.642z"/>
	<path id="path16683" inkscape:connector-curvature="0" fill="#E0DBD6" d="M356.944,121.767c-3.184,0-5.571,0.796-5.571,1.193
		c0,0.398,3.184,1.194,6.367,1.194h2.785c3.184,0,6.367-0.398,6.367-1.194c0.397-0.796-2.388-1.193-5.571-1.193H356.944z"/>
	<path id="path16687" inkscape:connector-curvature="0" fill="#E0DBD6" d="M470.752,121.767c-3.184,0-5.571,0.796-5.571,1.193
		c0.398,0.398,3.184,1.194,6.367,1.194h2.786c3.183,0,6.366-0.398,6.366-1.194c0.398-0.796-2.388-1.193-5.57-1.193H470.752z"/>
	<path id="path16691" inkscape:connector-curvature="0" fill="#E0DBD6" d="M551.93,121.767c-3.184,0-5.57,0.796-5.57,1.193
		c0.397,0.398,3.183,1.194,6.366,1.194h1.194c3.184,0,5.969-0.398,6.366-1.194c0.398-0.796-2.387-1.193-5.57-1.193H551.93z"/>
	<path id="path16695" inkscape:connector-curvature="0" fill="#E0DBD6" d="M592.121,121.767c-3.184,0-5.571,0.397-5.173,1.193
		c0.397,0.398,3.581,1.194,6.765,1.194h16.315c3.183,0,6.366-0.398,6.765-1.194c0.397-0.796-1.592-1.193-5.174-1.193H592.121z"/>
	<path id="path16699" inkscape:connector-curvature="0" fill="#E0DBD6" d="M641.862,121.767c-3.184,0-5.969,0.796-5.571,1.193
		c0.398,0.398,3.184,1.194,6.367,1.194s5.969-0.398,6.367-1.194c0.397-0.796-2.388-1.193-5.571-1.193H641.862z"/>
	<path id="path16703" inkscape:connector-curvature="0" fill="#E0DBD6" d="M659.77,121.767c-3.184,0-5.571,0.397-5.174,1.193
		c0.398,0.796,3.184,1.194,6.367,1.194h6.367c3.184,0,6.367-0.398,6.367-1.194c0.397-0.796-1.99-1.193-5.174-1.193H659.77z"/>
	<path id="path16707" inkscape:connector-curvature="0" fill="#E0DBD6" d="M699.563,121.767c-3.184,0-5.571,0.796-5.571,1.193
		c0,0.398,3.184,1.194,6.367,1.194h3.581c3.184,0,6.367-0.398,6.367-1.194c0.397-0.796-1.99-1.193-5.571-1.193H699.563z"/>
	<path id="path16711" inkscape:connector-curvature="0" fill="#E0DBD6" d="M723.438,121.767c-3.184,0-5.571,0.796-5.571,1.193
		c0.397,0.398,3.184,1.194,6.367,1.194h0.796c3.183,0,5.969-0.398,6.366-1.194c0.398-0.796-2.388-1.193-5.57-1.193H723.438z"/>
	<path id="path16715" inkscape:connector-curvature="0" fill="#E0DBD6" d="M756.864,121.767c-3.184,0-5.571,0.397-4.775,1.193
		s3.979,1.194,7.163,1.194h23.08c3.184,0,6.367-0.398,7.163-1.194s-1.592-1.193-4.775-1.193H756.864z"/>
	<path id="path16719" inkscape:connector-curvature="0" fill="#E0DBD6" d="M813.37,121.767c-3.183,0-5.57,0.397-4.774,1.193
		c0.796,0.398,3.979,1.194,7.162,1.194h23.08c3.184,0,6.367-0.398,7.163-1.194s-1.592-1.193-4.775-1.193H813.37z"/>
	<path id="path16723" inkscape:connector-curvature="0" fill="#E0DBD6" d="M957.023,121.767c-3.184,0-5.571,0.397-4.775,1.193
		c0.796,0.398,3.979,1.194,7.163,1.194h23.08c3.184,0,6.367-0.398,7.163-1.194c0.795-0.796-1.592-1.193-4.775-1.193H957.023z"/>
	<path id="path16727" inkscape:connector-curvature="0" fill="#E0DBD6" d="M904.099,26.264c-3.184,0-5.571,0.397-5.173,1.193
		c0.397,0.397,3.184,1.193,6.765,1.193h7.959c3.183,0,6.366-0.397,6.765-1.193c0.397-0.796-1.99-1.193-5.174-1.193H904.099z"/>
	<path id="path16731" inkscape:connector-curvature="0" fill="#E0DBD6" d="M859.53,26.264c-3.184,0-5.571,0.397-5.173,1.193
		c0.397,0.796,3.581,1.193,6.765,1.193h10.744c3.184,0,6.367-0.397,6.765-1.193c0.398-0.796-1.989-1.193-5.173-1.193H859.53z"/>
	<path id="path16735" inkscape:connector-curvature="0" fill="#E0DBD6" d="M836.849,26.264c-3.184,0-5.571,0.795-5.571,1.193
		c0.398,0.397,3.184,1.193,6.367,1.193h3.979c3.183,0,6.366-0.397,6.366-1.193c0.398-0.796-1.989-1.193-5.57-1.193H836.849z"/>
	<path id="path16739" inkscape:connector-curvature="0" fill="#E0DBD6" d="M844.409,72.822c-3.184,0-5.571,0.397-5.173,1.193
		c0.397,0.398,3.184,1.194,6.765,1.194h8.356c3.184,0,6.367-0.398,6.765-1.194c0.398-0.796-1.989-1.193-5.173-1.193H844.409z"/>
	<path id="path16743" inkscape:connector-curvature="0" fill="#E0DBD6" d="M705.93,23.08c-3.184,0-5.571,0.796-5.571,1.193
		c0,0.398,3.184,1.194,6.366,1.194h3.979c3.184,0,6.367-0.398,6.367-1.194c0.398-0.796-1.989-1.193-5.571-1.193H705.93z"/>
	<path id="path16747" inkscape:connector-curvature="0" fill="#E0DBD6" d="M738.161,23.08c-3.183,0-5.57,0.796-5.57,1.193
		c0.397,0.398,3.184,1.194,6.366,1.194h3.979c3.184,0,6.367-0.398,6.367-1.194c0.397-0.796-1.989-1.193-5.571-1.193H738.161z"/>
	<path id="path16751" inkscape:connector-curvature="0" fill="#E0DBD6" d="M717.071,43.773c-2.388,0-4.377,0.796-3.979,1.193
		c0,0.398,1.99,1.194,3.979,1.194s3.979-0.398,3.979-1.194C721.051,43.773,719.459,43.374,717.071,43.773z"/>
	<path id="path16755" inkscape:connector-curvature="0" fill="#E0DBD6" d="M728.611,37.008c-3.184,0-5.173,0.795-5.173,1.193
		c0,0.397,2.388,1.193,5.173,1.193s5.173-0.397,5.173-1.193S731.396,37.008,728.611,37.008z"/>
	<path id="path16759" inkscape:connector-curvature="0" fill="#E0DBD6" d="M585.356,38.201c-3.184,0-5.174,0.796-5.174,1.193
		c0,0.398,2.388,1.194,5.174,1.194c2.785,0,5.173-0.398,5.173-1.194S588.54,38.201,585.356,38.201z"/>
	<path id="path16763" inkscape:connector-curvature="0" fill="#E0DBD6" d="M621.966,71.627c-3.184,0-5.969,0.796-5.571,1.194
		c0.398,0.397,3.184,1.193,6.367,1.193s5.969-0.397,6.367-1.193c0.397-0.796-2.388-1.194-5.571-1.194H621.966z"/>
	<path id="path16767" inkscape:connector-curvature="0" fill="#E0DBD6" d="M596.498,83.566c-3.184,0-5.57,0.397-5.173,1.193
		c0.397,0.398,3.184,1.194,6.367,1.194h6.366c3.184,0,6.367-0.398,6.367-1.194c0.398-0.796-1.989-1.193-5.173-1.193H596.498z"/>
	<path id="path16771" inkscape:connector-curvature="0" fill="#E0DBD6" d="M953.442,86.351c-3.184,0-5.571,0.398-5.173,1.194
		c0.397,0.397,3.183,1.193,6.366,1.193h6.367c3.184,0,6.367-0.397,6.367-1.193c0.397-0.796-1.99-1.194-5.174-1.194H953.442z"/>
	<path id="path16775" inkscape:connector-curvature="0" fill="#E0DBD6" d="M359.729,95.503c-3.184,0-5.571,0.796-5.571,1.194
		c0,0.397,3.184,1.193,6.367,1.193h1.592c3.184,0,5.969-0.397,6.367-1.193c0.397-0.796-2.388-1.194-5.571-1.194H359.729z"/>
	<path id="path16779" inkscape:connector-curvature="0" fill="#E0DBD6" d="M309.59,85.555c-3.184,0-5.57,0.796-5.57,1.194
		c0.397,0.397,3.183,1.193,6.366,1.193h1.592c3.184,0,5.969-0.397,6.367-1.193c0.397-0.796-1.99-1.194-5.571-1.194H309.59z"/>
	<path id="path16783" inkscape:connector-curvature="0" fill="#E0DBD6" d="M237.564,84.759c-3.183,0-5.571,0.796-5.571,1.194
		c0.398,0.397,3.184,1.193,6.367,1.193h1.592c3.184,0,5.969-0.397,6.367-1.193s-2.388-1.194-5.571-1.194H237.564z"/>
	<path id="path16787" inkscape:connector-curvature="0" fill="#E0DBD6" d="M128.93,46.16c-3.184,0-5.571,0.397-5.173,1.193
		s3.184,1.193,6.367,1.193h6.765c3.184,0,6.367-0.397,6.367-1.193c0.398-0.796-1.989-1.193-5.173-1.193H128.93z"/>
	<path id="path16791" inkscape:connector-curvature="0" fill="#E0DBD6" d="M333.068,27.855c-3.184-0.397-5.97,0-5.571,0.398
		c0.397,0.397,2.785,1.592,5.969,1.989l1.592,0.398c3.184,0.397,6.367,0.397,6.367-0.398c0.397-0.796-1.99-1.592-5.173-1.989
		L333.068,27.855z"/>
	<path id="path16795" inkscape:connector-curvature="0" fill="#E0DBD6" d="M642.261,91.524c-3.184,0-5.571,0.796-5.571,1.194
		c0.397,0.397,3.184,1.193,6.367,1.193h1.591c3.184,0,5.97-0.397,6.367-1.193c0.398-0.796-2.388-1.194-5.571-1.194H642.261z"/>
	<path id="path16799" inkscape:connector-curvature="0" fill="#E0DBD6" d="M732.988,82.77c-3.184,0-5.571,0.796-5.571,1.193
		c0.398,0.398,3.184,1.194,6.367,1.194h1.592c3.184,0,5.969-0.398,6.367-1.194c0.397-0.796-2.388-1.193-5.571-1.193H732.988z"/>
	<path id="path16803" inkscape:connector-curvature="0" fill="#E0DBD6" d="M514.923,25.468c-3.184,0-5.174,0.397-4.775,1.193
		c0.796,0.397,3.979,1.193,7.163,1.193h30.641c3.183,0,6.765-0.397,7.162-1.193c0.398-0.796-1.193-1.193-4.775-1.193H514.923z"/>
	<path id="path16807" inkscape:connector-curvature="0" fill="#E0DBD6" d="M406.686,25.865c-3.184,0-5.174,0.398-4.378,1.193
		c0.796,0.398,3.979,1.194,7.562,1.194h32.232c3.183,0,6.765-0.398,7.561-1.194c0.796-0.795-1.194-1.193-4.378-1.193H406.686z"/>
	<path id="path16811" inkscape:connector-curvature="0" fill="#E0DBD6" d="M401.114,71.627c-3.184,0-5.571,0.398-5.173,1.194
		c0.397,0.397,3.581,1.193,6.765,1.193h11.938c3.184,0,6.367-0.397,6.765-1.193c0.398-0.796-1.989-1.194-5.173-1.194H401.114z"/>
	<path id="path16815" inkscape:connector-curvature="0" fill="#E0DBD6" d="M430.163,71.627c-3.184,0-5.571,0.398-5.173,1.194
		c0.397,0.397,3.581,1.193,6.765,1.193h10.744c3.184,0,6.367-0.397,6.765-1.193c0.398-0.796-1.989-1.194-5.173-1.194H430.163z"/>
	<path id="path16819" inkscape:connector-curvature="0" fill="#E0DBD6" d="M492.24,115.798c-3.184,0-5.969,0.796-5.571,1.193
		c0.398,0.398,2.786,1.194,5.97,1.194s5.57-0.398,5.969-1.194C498.607,116.196,495.822,115.798,492.24,115.798z"/>
	<path id="path16823" inkscape:connector-curvature="0" fill="#E0DBD6" d="M483.884,42.181c-3.184-0.398-5.571,0-5.571,0.397
		c0.398,0.796,3.184,1.592,6.367,1.99l4.377,0.397c3.184,0.398,6.367,0.398,6.766-0.397c0.397-0.796-1.99-1.592-5.174-1.99
		L483.884,42.181z"/>
	<path id="path16827" inkscape:connector-curvature="0" fill="#E0DBD6" d="M754.875,91.922c-3.184-0.398-5.571,0-5.571,0.397
		c0.397,0.796,3.184,1.592,6.367,1.99l4.377,0.397c3.184,0.398,6.367,0.398,6.765-0.397c0.398-0.796-1.989-1.592-5.173-1.99
		L754.875,91.922z"/>
	<path id="path16831" inkscape:connector-curvature="0" fill="#E0DBD6" d="M744.528,43.773c-2.388,0-3.979,0.796-3.979,1.193
		c0,0.398,1.99,1.194,3.979,1.194c1.99,0,3.581-0.398,3.979-1.194C748.508,43.773,746.519,43.374,744.528,43.773z"/>
	<path id="path16835" inkscape:connector-curvature="0" fill="#E0DBD6" d="M873.061,72.822c-3.184,0-5.571,0.397-5.174,1.193
		c0.398,0.398,3.582,1.194,6.766,1.194h10.743c3.184,0,6.367-0.398,6.766-1.194c0.397-0.796-1.99-1.193-5.174-1.193H873.061z"/>
	<path id="path16839" inkscape:connector-curvature="0" fill="#E0DBD6" d="M976.92,26.264c-3.184,0-5.571,0.795-5.571,1.193
		c0.398,0.397,3.184,1.193,6.367,1.193h4.378c3.183,0,6.366-0.397,6.366-1.193c0.398-0.796-1.989-1.193-5.571-1.193H976.92z"/>
	<path id="path16843" inkscape:connector-curvature="0" fill="#E0DBD6" d="M510.545,121.767c-3.184,0-5.57,0.397-4.775,1.193
		c0.398,0.398,3.582,1.194,6.766,1.194h19.101c3.184,0,6.366-0.398,6.765-1.194c0.397-0.796-1.592-1.193-4.775-1.193H510.545z"/>
	<path id="path16847" inkscape:connector-curvature="0" fill="#E0DBD6" d="M378.034,121.767c-3.184,0-5.173,0.397-4.775,1.193
		c0.398,0.796,3.979,1.194,7.163,1.194h29.049c3.184,0,6.367-0.398,7.163-1.194s-1.194-1.193-4.775-1.193H378.034z"/>
	<path id="path16851" inkscape:connector-curvature="0" fill="#E0DBD6" d="M427.378,121.767c-3.184,0-5.571,0.397-5.174,1.193
		c0.398,0.398,3.582,1.194,6.766,1.194h10.346c3.184,0,6.367-0.398,6.765-1.194c0.398-0.796-1.989-1.193-5.173-1.193H427.378z"/>
	<path id="path16855" inkscape:connector-curvature="0" fill="#E0DBD6" d="M193.395,122.164c-3.184,0-5.571,0.796-5.571,1.194
		c0.398,0.397,3.184,1.193,6.367,1.193h3.979c3.184,0,6.367-0.397,6.367-1.193c0.398-0.796-1.99-1.194-5.571-1.194H193.395z"/>
</g>
</svg>
