<svg version="1.1" id="master" xmlns="http://www.w3.org/2000/svg" xmlns:xlink="http://www.w3.org/1999/xlink" x="0px" y="0px"
	 width="220px" height="34px" viewBox="0 0 220 34" enable-background="new 0 0 220 34" xml:space="preserve">
<rect fill="none" width="24" height="24"/>
<path d="M181.651,1.241l0.423,24.688h-0.212l-7.146-24.688h-11.764v31.096h7.771L170.306,6.81h0.208l7.674,25.527h11.241V1.241
	H181.651z M33.62,1.241l-5.882,31.416h8.509l4.308-28.579h0.211l4.202,28.576h8.405L47.593,1.241H33.62z M81.107,1.241
	l-3.885,23.953H77.01L73.123,1.241H60.306l-0.63,31.416h7.879l0.21-28.265h0.104l5.254,28.262h7.984l5.254-28.26h0.211l0.209,28.26
	h7.879L93.926,1.241H81.107z M14.499,23.725c0.315,0.734,0.211,1.784,0.105,2.311c-0.21,1.05-0.945,2.102-3.047,2.102
	c-1.996,0-3.152-1.155-3.152-2.84v-3.043H0v2.417c0,7.037,5.568,9.139,11.453,9.139c5.674,0,10.401-1.997,11.137-7.145
	c0.42-2.73,0.104-4.517,0-5.147C21.118,14.899,9.141,13.009,8.299,9.331c-0.103-0.63-0.103-1.261,0-1.681
	C8.511,6.6,9.246,5.548,11.136,5.548c1.893,0,2.943,1.155,2.943,2.837v1.892h7.878V8.07c0-6.829-6.199-7.88-10.611-7.88
	c-5.568,0-10.191,1.891-11.031,6.935C0.105,8.49,0,9.751,0.421,11.327C1.681,17.841,12.924,19.734,14.499,23.725 M116.725,23.725
	c0.314,0.734,0.209,1.682,0.104,2.311c-0.21,1.05-0.945,2.102-3.044,2.102c-1.998,0-3.153-1.155-3.153-2.84v-3.043h-8.406v2.417
	c0,6.93,5.463,9.035,11.348,9.035c5.674,0,10.297-1.894,11.029-7.146c0.422-2.732,0.107-4.412,0-5.147
	c-1.257-6.514-13.131-8.51-13.971-12.081c-0.105-0.63-0.105-1.262,0-1.682c0.21-1.051,0.945-2.103,2.836-2.103
	c1.787,0,2.941,1.155,2.941,2.837v1.892h7.775V8.07c0-6.829-6.094-7.88-10.507-7.88c-5.567,0-10.086,1.787-10.926,6.935
	c-0.211,1.365-0.211,2.626,0.105,4.202C104.117,17.841,115.148,19.625,116.725,23.725 M143.199,27.927
	c2.207,0,2.838-1.47,3.045-2.313c0.108-0.313,0.108-0.84,0.108-1.155V1.241h7.982v22.587c0,0.631,0,1.786-0.104,2.102
	c-0.525,5.883-5.147,7.776-10.926,7.776c-5.779,0-10.399-1.894-10.927-7.776c0-0.315-0.104-1.471-0.104-2.102V1.241h7.984v23.218
	c0,0.418,0,0.838,0.105,1.155C140.363,26.457,140.994,27.927,143.199,27.927 M208.757,27.61c2.314,0,3.05-1.47,3.255-2.313
	c0.109-0.31,0.109-0.838,0.109-1.152v-4.52h-3.259v-4.621H220v8.404c0,0.631,0,1.051-0.106,2.101
	c-0.525,5.777-5.462,7.776-11.031,7.776c-5.567,0-10.504-1.999-11.028-7.776c-0.107-1.05-0.107-1.47-0.107-2.101V10.172
	c0-0.525,0.107-1.576,0.107-2.102c0.733-5.885,5.461-7.775,11.028-7.775c5.569,0,10.4,1.891,11.031,7.775
	C220,9.015,220,10.172,220,10.172v1.049h-7.879V9.438c0,0,0-0.736-0.109-1.156c-0.103-0.736-0.732-2.312-3.149-2.312
	c-2.311,0-2.942,1.47-3.149,2.312c-0.107,0.42-0.107,0.945-0.107,1.47v14.394c0,0.419,0,0.839,0.107,1.152
	C205.713,26.141,206.552,27.61,208.757,27.61"/>
</svg>
